0
SECTION
2
ENTITIES
0
POLYLINE
8
CUT
66
1
70
1
0
VERTEX
8
CUT
10
562.5000
20
0.0000
0
VERTEX
8
CUT
10
563.2351
20
0.0361
0
VERTEX
8
CUT
10
563.9632
20
0.1441
0
VERTEX
8
CUT
10
564.6771
20
0.3229
0
VERTEX
8
CUT
10
565.3701
20
0.5709
0
VERTEX
8
CUT
10
566.0355
20
0.8856
0
VERTEX
8
CUT
10
566.6668
20
1.2640
0
VERTEX
8
CUT
10
567.2579
20
1.7024
0
VERTEX
8
CUT
10
567.8033
20
2.1967
0
VERTEX
8
CUT
10
568.2976
20
2.7421
0
VERTEX
8
CUT
10
568.7360
20
3.3332
0
VERTEX
8
CUT
10
569.1144
20
3.9645
0
VERTEX
8
CUT
10
569.4291
20
4.6299
0
VERTEX
8
CUT
10
569.6771
20
5.3229
0
VERTEX
8
CUT
10
569.8559
20
6.0368
0
VERTEX
8
CUT
10
569.9639
20
6.7649
0
VERTEX
8
CUT
10
570.0000
20
7.5000
0
VERTEX
8
CUT
10
570.0000
20
562.5000
0
VERTEX
8
CUT
10
569.9639
20
563.2351
0
VERTEX
8
CUT
10
569.8559
20
563.9632
0
VERTEX
8
CUT
10
569.6771
20
564.6771
0
VERTEX
8
CUT
10
569.4291
20
565.3701
0
VERTEX
8
CUT
10
569.1144
20
566.0355
0
VERTEX
8
CUT
10
568.7360
20
566.6668
0
VERTEX
8
CUT
10
568.2976
20
567.2579
0
VERTEX
8
CUT
10
567.8033
20
567.8033
0
VERTEX
8
CUT
10
567.2579
20
568.2976
0
VERTEX
8
CUT
10
566.6668
20
568.7360
0
VERTEX
8
CUT
10
566.0355
20
569.1144
0
VERTEX
8
CUT
10
565.3701
20
569.4291
0
VERTEX
8
CUT
10
564.6771
20
569.6771
0
VERTEX
8
CUT
10
563.9632
20
569.8559
0
VERTEX
8
CUT
10
563.2351
20
569.9639
0
VERTEX
8
CUT
10
562.5000
20
570.0000
0
VERTEX
8
CUT
10
7.5000
20
570.0000
0
VERTEX
8
CUT
10
6.7649
20
569.9639
0
VERTEX
8
CUT
10
6.0368
20
569.8559
0
VERTEX
8
CUT
10
5.3229
20
569.6771
0
VERTEX
8
CUT
10
4.6299
20
569.4291
0
VERTEX
8
CUT
10
3.9645
20
569.1144
0
VERTEX
8
CUT
10
3.3332
20
568.7360
0
VERTEX
8
CUT
10
2.7421
20
568.2976
0
VERTEX
8
CUT
10
2.1967
20
567.8033
0
VERTEX
8
CUT
10
1.7024
20
567.2579
0
VERTEX
8
CUT
10
1.2640
20
566.6668
0
VERTEX
8
CUT
10
0.8856
20
566.0355
0
VERTEX
8
CUT
10
0.5709
20
565.3701
0
VERTEX
8
CUT
10
0.3229
20
564.6771
0
VERTEX
8
CUT
10
0.1441
20
563.9632
0
VERTEX
8
CUT
10
0.0361
20
563.2351
0
VERTEX
8
CUT
10
0.0000
20
562.5000
0
VERTEX
8
CUT
10
0.0000
20
7.5000
0
VERTEX
8
CUT
10
0.0361
20
6.7649
0
VERTEX
8
CUT
10
0.1441
20
6.0368
0
VERTEX
8
CUT
10
0.3229
20
5.3229
0
VERTEX
8
CUT
10
0.5709
20
4.6299
0
VERTEX
8
CUT
10
0.8856
20
3.9645
0
VERTEX
8
CUT
10
1.2640
20
3.3332
0
VERTEX
8
CUT
10
1.7024
20
2.7421
0
VERTEX
8
CUT
10
2.1967
20
2.1967
0
VERTEX
8
CUT
10
2.7421
20
1.7024
0
VERTEX
8
CUT
10
3.3332
20
1.2640
0
VERTEX
8
CUT
10
3.9645
20
0.8856
0
VERTEX
8
CUT
10
4.6299
20
0.5709
0
VERTEX
8
CUT
10
5.3229
20
0.3229
0
VERTEX
8
CUT
10
6.0368
20
0.1441
0
VERTEX
8
CUT
10
6.7649
20
0.0361
0
VERTEX
8
CUT
10
7.5000
20
0.0000
0
SEQEND
8
CUT
0
CIRCLE
8
HOLES
10
7.5000
20
7.5000
40
1.6500
0
CIRCLE
8
HOLES
10
535.0000
20
7.5000
40
1.6500
0
CIRCLE
8
HOLES
10
562.5000
20
7.5000
40
1.6500
0
CIRCLE
8
HOLES
10
7.5000
20
562.5000
40
1.6500
0
CIRCLE
8
HOLES
10
535.0000
20
562.5000
40
1.6500
0
CIRCLE
8
HOLES
10
562.5000
20
562.5000
40
1.6500
0
LINE
8
GUIDE
10
85.0000
20
85.0000
11
85.0000
21
485.0000
0
LINE
8
GUIDE
10
85.0000
20
85.0000
11
485.0000
21
85.0000
0
LINE
8
GUIDE
10
135.0000
20
85.0000
11
135.0000
21
485.0000
0
LINE
8
GUIDE
10
85.0000
20
135.0000
11
485.0000
21
135.0000
0
LINE
8
GUIDE
10
185.0000
20
85.0000
11
185.0000
21
485.0000
0
LINE
8
GUIDE
10
85.0000
20
185.0000
11
485.0000
21
185.0000
0
LINE
8
GUIDE
10
235.0000
20
85.0000
11
235.0000
21
485.0000
0
LINE
8
GUIDE
10
85.0000
20
235.0000
11
485.0000
21
235.0000
0
LINE
8
GUIDE
10
285.0000
20
85.0000
11
285.0000
21
485.0000
0
LINE
8
GUIDE
10
85.0000
20
285.0000
11
485.0000
21
285.0000
0
LINE
8
GUIDE
10
335.0000
20
85.0000
11
335.0000
21
485.0000
0
LINE
8
GUIDE
10
85.0000
20
335.0000
11
485.0000
21
335.0000
0
LINE
8
GUIDE
10
385.0000
20
85.0000
11
385.0000
21
485.0000
0
LINE
8
GUIDE
10
85.0000
20
385.0000
11
485.0000
21
385.0000
0
LINE
8
GUIDE
10
435.0000
20
85.0000
11
435.0000
21
485.0000
0
LINE
8
GUIDE
10
85.0000
20
435.0000
11
485.0000
21
435.0000
0
LINE
8
GUIDE
10
485.0000
20
85.0000
11
485.0000
21
485.0000
0
LINE
8
GUIDE
10
85.0000
20
485.0000
11
485.0000
21
485.0000
0
POLYLINE
8
GUIDE
66
1
70
1
0
VERTEX
8
GUIDE
10
85.0000
20
35.0000
0
VERTEX
8
GUIDE
10
485.0000
20
35.0000
0
VERTEX
8
GUIDE
10
485.0000
20
85.0000
0
VERTEX
8
GUIDE
10
85.0000
20
85.0000
0
SEQEND
8
GUIDE
0
LINE
8
GUIDE
10
135.0000
20
35.0000
11
135.0000
21
85.0000
0
LINE
8
GUIDE
10
185.0000
20
35.0000
11
185.0000
21
85.0000
0
LINE
8
GUIDE
10
235.0000
20
35.0000
11
235.0000
21
85.0000
0
LINE
8
GUIDE
10
285.0000
20
35.0000
11
285.0000
21
85.0000
0
LINE
8
GUIDE
10
335.0000
20
35.0000
11
335.0000
21
85.0000
0
LINE
8
GUIDE
10
385.0000
20
35.0000
11
385.0000
21
85.0000
0
LINE
8
GUIDE
10
435.0000
20
35.0000
11
435.0000
21
85.0000
0
POLYLINE
8
GUIDE
66
1
70
1
0
VERTEX
8
GUIDE
10
85.0000
20
485.0000
0
VERTEX
8
GUIDE
10
485.0000
20
485.0000
0
VERTEX
8
GUIDE
10
485.0000
20
535.0000
0
VERTEX
8
GUIDE
10
85.0000
20
535.0000
0
SEQEND
8
GUIDE
0
LINE
8
GUIDE
10
135.0000
20
485.0000
11
135.0000
21
535.0000
0
LINE
8
GUIDE
10
185.0000
20
485.0000
11
185.0000
21
535.0000
0
LINE
8
GUIDE
10
235.0000
20
485.0000
11
235.0000
21
535.0000
0
LINE
8
GUIDE
10
285.0000
20
485.0000
11
285.0000
21
535.0000
0
LINE
8
GUIDE
10
335.0000
20
485.0000
11
335.0000
21
535.0000
0
LINE
8
GUIDE
10
385.0000
20
485.0000
11
385.0000
21
535.0000
0
LINE
8
GUIDE
10
435.0000
20
485.0000
11
435.0000
21
535.0000
0
POLYLINE
8
GUIDE
66
1
70
1
0
VERTEX
8
GUIDE
10
35.0000
20
85.0000
0
VERTEX
8
GUIDE
10
85.0000
20
85.0000
0
VERTEX
8
GUIDE
10
85.0000
20
485.0000
0
VERTEX
8
GUIDE
10
35.0000
20
485.0000
0
SEQEND
8
GUIDE
0
LINE
8
GUIDE
10
35.0000
20
135.0000
11
85.0000
21
135.0000
0
LINE
8
GUIDE
10
35.0000
20
185.0000
11
85.0000
21
185.0000
0
LINE
8
GUIDE
10
35.0000
20
235.0000
11
85.0000
21
235.0000
0
LINE
8
GUIDE
10
35.0000
20
285.0000
11
85.0000
21
285.0000
0
LINE
8
GUIDE
10
35.0000
20
335.0000
11
85.0000
21
335.0000
0
LINE
8
GUIDE
10
35.0000
20
385.0000
11
85.0000
21
385.0000
0
LINE
8
GUIDE
10
35.0000
20
435.0000
11
85.0000
21
435.0000
0
POLYLINE
8
GUIDE
66
1
70
1
0
VERTEX
8
GUIDE
10
485.0000
20
85.0000
0
VERTEX
8
GUIDE
10
535.0000
20
85.0000
0
VERTEX
8
GUIDE
10
535.0000
20
485.0000
0
VERTEX
8
GUIDE
10
485.0000
20
485.0000
0
SEQEND
8
GUIDE
0
LINE
8
GUIDE
10
485.0000
20
135.0000
11
535.0000
21
135.0000
0
LINE
8
GUIDE
10
485.0000
20
185.0000
11
535.0000
21
185.0000
0
LINE
8
GUIDE
10
485.0000
20
235.0000
11
535.0000
21
235.0000
0
LINE
8
GUIDE
10
485.0000
20
285.0000
11
535.0000
21
285.0000
0
LINE
8
GUIDE
10
485.0000
20
335.0000
11
535.0000
21
335.0000
0
LINE
8
GUIDE
10
485.0000
20
385.0000
11
535.0000
21
385.0000
0
LINE
8
GUIDE
10
485.0000
20
435.0000
11
535.0000
21
435.0000
0
POLYLINE
8
CUT
66
1
70
1
0
VERTEX
8
CUT
10
1146.1000
20
0.0000
0
VERTEX
8
CUT
10
1146.8351
20
0.0361
0
VERTEX
8
CUT
10
1147.5632
20
0.1441
0
VERTEX
8
CUT
10
1148.2771
20
0.3229
0
VERTEX
8
CUT
10
1148.9701
20
0.5709
0
VERTEX
8
CUT
10
1149.6355
20
0.8856
0
VERTEX
8
CUT
10
1150.2668
20
1.2640
0
VERTEX
8
CUT
10
1150.8579
20
1.7024
0
VERTEX
8
CUT
10
1151.4033
20
2.1967
0
VERTEX
8
CUT
10
1151.8976
20
2.7421
0
VERTEX
8
CUT
10
1152.3360
20
3.3332
0
VERTEX
8
CUT
10
1152.7144
20
3.9645
0
VERTEX
8
CUT
10
1153.0291
20
4.6299
0
VERTEX
8
CUT
10
1153.2771
20
5.3229
0
VERTEX
8
CUT
10
1153.4559
20
6.0368
0
VERTEX
8
CUT
10
1153.5639
20
6.7649
0
VERTEX
8
CUT
10
1153.6000
20
7.5000
0
VERTEX
8
CUT
10
1153.6000
20
562.5000
0
VERTEX
8
CUT
10
1153.5639
20
563.2351
0
VERTEX
8
CUT
10
1153.4559
20
563.9632
0
VERTEX
8
CUT
10
1153.2771
20
564.6771
0
VERTEX
8
CUT
10
1153.0291
20
565.3701
0
VERTEX
8
CUT
10
1152.7144
20
566.0355
0
VERTEX
8
CUT
10
1152.3360
20
566.6668
0
VERTEX
8
CUT
10
1151.8976
20
567.2579
0
VERTEX
8
CUT
10
1151.4033
20
567.8033
0
VERTEX
8
CUT
10
1150.8579
20
568.2976
0
VERTEX
8
CUT
10
1150.2668
20
568.7360
0
VERTEX
8
CUT
10
1149.6355
20
569.1144
0
VERTEX
8
CUT
10
1148.9701
20
569.4291
0
VERTEX
8
CUT
10
1148.2771
20
569.6771
0
VERTEX
8
CUT
10
1147.5632
20
569.8559
0
VERTEX
8
CUT
10
1146.8351
20
569.9639
0
VERTEX
8
CUT
10
1146.1000
20
570.0000
0
VERTEX
8
CUT
10
591.1000
20
570.0000
0
VERTEX
8
CUT
10
590.3649
20
569.9639
0
VERTEX
8
CUT
10
589.6368
20
569.8559
0
VERTEX
8
CUT
10
588.9229
20
569.6771
0
VERTEX
8
CUT
10
588.2299
20
569.4291
0
VERTEX
8
CUT
10
587.5645
20
569.1144
0
VERTEX
8
CUT
10
586.9332
20
568.7360
0
VERTEX
8
CUT
10
586.3421
20
568.2976
0
VERTEX
8
CUT
10
585.7967
20
567.8033
0
VERTEX
8
CUT
10
585.3024
20
567.2579
0
VERTEX
8
CUT
10
584.8640
20
566.6668
0
VERTEX
8
CUT
10
584.4856
20
566.0355
0
VERTEX
8
CUT
10
584.1709
20
565.3701
0
VERTEX
8
CUT
10
583.9229
20
564.6771
0
VERTEX
8
CUT
10
583.7441
20
563.9632
0
VERTEX
8
CUT
10
583.6361
20
563.2351
0
VERTEX
8
CUT
10
583.6000
20
562.5000
0
VERTEX
8
CUT
10
583.6000
20
7.5000
0
VERTEX
8
CUT
10
583.6361
20
6.7649
0
VERTEX
8
CUT
10
583.7441
20
6.0368
0
VERTEX
8
CUT
10
583.9229
20
5.3229
0
VERTEX
8
CUT
10
584.1709
20
4.6299
0
VERTEX
8
CUT
10
584.4856
20
3.9645
0
VERTEX
8
CUT
10
584.8640
20
3.3332
0
VERTEX
8
CUT
10
585.3024
20
2.7421
0
VERTEX
8
CUT
10
585.7967
20
2.1967
0
VERTEX
8
CUT
10
586.3421
20
1.7024
0
VERTEX
8
CUT
10
586.9332
20
1.2640
0
VERTEX
8
CUT
10
587.5645
20
0.8856
0
VERTEX
8
CUT
10
588.2299
20
0.5709
0
VERTEX
8
CUT
10
588.9229
20
0.3229
0
VERTEX
8
CUT
10
589.6368
20
0.1441
0
VERTEX
8
CUT
10
590.3649
20
0.0361
0
VERTEX
8
CUT
10
591.1000
20
0.0000
0
SEQEND
8
CUT
0
CIRCLE
8
HOLES
10
591.1000
20
562.5000
40
1.6500
0
CIRCLE
8
HOLES
10
1118.6000
20
562.5000
40
1.6500
0
CIRCLE
8
HOLES
10
1146.1000
20
562.5000
40
1.6500
0
CIRCLE
8
HOLES
10
1118.6000
20
435.0000
40
1.6500
0
CIRCLE
8
HOLES
10
1146.1000
20
435.0000
40
1.6500
0
CIRCLE
8
HOLES
10
1118.6000
20
135.0000
40
1.6500
0
CIRCLE
8
HOLES
10
1146.1000
20
135.0000
40
1.6500
0
CIRCLE
8
HOLES
10
591.1000
20
7.5000
40
1.6500
0
CIRCLE
8
HOLES
10
1118.6000
20
7.5000
40
1.6500
0
CIRCLE
8
HOLES
10
1146.1000
20
7.5000
40
1.6500
0
LINE
8
GUIDE
10
668.6000
20
85.0000
11
668.6000
21
485.0000
0
LINE
8
GUIDE
10
668.6000
20
85.0000
11
1068.6000
21
85.0000
0
LINE
8
GUIDE
10
718.6000
20
85.0000
11
718.6000
21
485.0000
0
LINE
8
GUIDE
10
668.6000
20
135.0000
11
1068.6000
21
135.0000
0
LINE
8
GUIDE
10
768.6000
20
85.0000
11
768.6000
21
485.0000
0
LINE
8
GUIDE
10
668.6000
20
185.0000
11
1068.6000
21
185.0000
0
LINE
8
GUIDE
10
818.6000
20
85.0000
11
818.6000
21
485.0000
0
LINE
8
GUIDE
10
668.6000
20
235.0000
11
1068.6000
21
235.0000
0
LINE
8
GUIDE
10
868.6000
20
85.0000
11
868.6000
21
485.0000
0
LINE
8
GUIDE
10
668.6000
20
285.0000
11
1068.6000
21
285.0000
0
LINE
8
GUIDE
10
918.6000
20
85.0000
11
918.6000
21
485.0000
0
LINE
8
GUIDE
10
668.6000
20
335.0000
11
1068.6000
21
335.0000
0
LINE
8
GUIDE
10
968.6000
20
85.0000
11
968.6000
21
485.0000
0
LINE
8
GUIDE
10
668.6000
20
385.0000
11
1068.6000
21
385.0000
0
LINE
8
GUIDE
10
1018.6000
20
85.0000
11
1018.6000
21
485.0000
0
LINE
8
GUIDE
10
668.6000
20
435.0000
11
1068.6000
21
435.0000
0
LINE
8
GUIDE
10
1068.6000
20
85.0000
11
1068.6000
21
485.0000
0
LINE
8
GUIDE
10
668.6000
20
485.0000
11
1068.6000
21
485.0000
0
POLYLINE
8
GUIDE
66
1
70
1
0
VERTEX
8
GUIDE
10
668.6000
20
35.0000
0
VERTEX
8
GUIDE
10
1068.6000
20
35.0000
0
VERTEX
8
GUIDE
10
1068.6000
20
85.0000
0
VERTEX
8
GUIDE
10
668.6000
20
85.0000
0
SEQEND
8
GUIDE
0
LINE
8
GUIDE
10
718.6000
20
35.0000
11
718.6000
21
85.0000
0
LINE
8
GUIDE
10
768.6000
20
35.0000
11
768.6000
21
85.0000
0
LINE
8
GUIDE
10
818.6000
20
35.0000
11
818.6000
21
85.0000
0
LINE
8
GUIDE
10
868.6000
20
35.0000
11
868.6000
21
85.0000
0
LINE
8
GUIDE
10
918.6000
20
35.0000
11
918.6000
21
85.0000
0
LINE
8
GUIDE
10
968.6000
20
35.0000
11
968.6000
21
85.0000
0
LINE
8
GUIDE
10
1018.6000
20
35.0000
11
1018.6000
21
85.0000
0
POLYLINE
8
GUIDE
66
1
70
1
0
VERTEX
8
GUIDE
10
668.6000
20
485.0000
0
VERTEX
8
GUIDE
10
1068.6000
20
485.0000
0
VERTEX
8
GUIDE
10
1068.6000
20
535.0000
0
VERTEX
8
GUIDE
10
668.6000
20
535.0000
0
SEQEND
8
GUIDE
0
LINE
8
GUIDE
10
718.6000
20
485.0000
11
718.6000
21
535.0000
0
LINE
8
GUIDE
10
768.6000
20
485.0000
11
768.6000
21
535.0000
0
LINE
8
GUIDE
10
818.6000
20
485.0000
11
818.6000
21
535.0000
0
LINE
8
GUIDE
10
868.6000
20
485.0000
11
868.6000
21
535.0000
0
LINE
8
GUIDE
10
918.6000
20
485.0000
11
918.6000
21
535.0000
0
LINE
8
GUIDE
10
968.6000
20
485.0000
11
968.6000
21
535.0000
0
LINE
8
GUIDE
10
1018.6000
20
485.0000
11
1018.6000
21
535.0000
0
POLYLINE
8
GUIDE
66
1
70
1
0
VERTEX
8
GUIDE
10
618.6000
20
85.0000
0
VERTEX
8
GUIDE
10
668.6000
20
85.0000
0
VERTEX
8
GUIDE
10
668.6000
20
485.0000
0
VERTEX
8
GUIDE
10
618.6000
20
485.0000
0
SEQEND
8
GUIDE
0
LINE
8
GUIDE
10
618.6000
20
135.0000
11
668.6000
21
135.0000
0
LINE
8
GUIDE
10
618.6000
20
185.0000
11
668.6000
21
185.0000
0
LINE
8
GUIDE
10
618.6000
20
235.0000
11
668.6000
21
235.0000
0
LINE
8
GUIDE
10
618.6000
20
285.0000
11
668.6000
21
285.0000
0
LINE
8
GUIDE
10
618.6000
20
335.0000
11
668.6000
21
335.0000
0
LINE
8
GUIDE
10
618.6000
20
385.0000
11
668.6000
21
385.0000
0
LINE
8
GUIDE
10
618.6000
20
435.0000
11
668.6000
21
435.0000
0
POLYLINE
8
GUIDE
66
1
70
1
0
VERTEX
8
GUIDE
10
1068.6000
20
85.0000
0
VERTEX
8
GUIDE
10
1118.6000
20
85.0000
0
VERTEX
8
GUIDE
10
1118.6000
20
485.0000
0
VERTEX
8
GUIDE
10
1068.6000
20
485.0000
0
SEQEND
8
GUIDE
0
LINE
8
GUIDE
10
1068.6000
20
135.0000
11
1118.6000
21
135.0000
0
LINE
8
GUIDE
10
1068.6000
20
185.0000
11
1118.6000
21
185.0000
0
LINE
8
GUIDE
10
1068.6000
20
235.0000
11
1118.6000
21
235.0000
0
LINE
8
GUIDE
10
1068.6000
20
285.0000
11
1118.6000
21
285.0000
0
LINE
8
GUIDE
10
1068.6000
20
335.0000
11
1118.6000
21
335.0000
0
LINE
8
GUIDE
10
1068.6000
20
385.0000
11
1118.6000
21
385.0000
0
LINE
8
GUIDE
10
1068.6000
20
435.0000
11
1118.6000
21
435.0000
0
ENDSEC
0
EOF
