ISO-10303-21;
HEADER;
FILE_DESCRIPTION((''),'2;1');
FILE_NAME('ChessBot_V2_board.step','',(''),(''),'MicroChess tools/step_writer.py','','');
FILE_SCHEMA(('AUTOMOTIVE_DESIGN { 1 0 10303 214 1 1 1 1 }'));
ENDSEC;
DATA;
#1=CARTESIAN_POINT('',(7.5,0.,0.));
#2=VERTEX_POINT('',#1);
#3=CARTESIAN_POINT('',(562.5,0.,0.));
#4=VERTEX_POINT('',#3);
#5=CARTESIAN_POINT('',(570.,7.5,0.));
#6=VERTEX_POINT('',#5);
#7=CARTESIAN_POINT('',(570.,562.5,0.));
#8=VERTEX_POINT('',#7);
#9=CARTESIAN_POINT('',(562.5,570.,0.));
#10=VERTEX_POINT('',#9);
#11=CARTESIAN_POINT('',(7.5,570.,0.));
#12=VERTEX_POINT('',#11);
#13=CARTESIAN_POINT('',(0.,562.5,0.));
#14=VERTEX_POINT('',#13);
#15=CARTESIAN_POINT('',(0.,7.5,0.));
#16=VERTEX_POINT('',#15);
#17=CARTESIAN_POINT('',(7.5,0.,5.));
#18=VERTEX_POINT('',#17);
#19=CARTESIAN_POINT('',(562.5,0.,5.));
#20=VERTEX_POINT('',#19);
#21=CARTESIAN_POINT('',(570.,7.5,5.));
#22=VERTEX_POINT('',#21);
#23=CARTESIAN_POINT('',(570.,562.5,5.));
#24=VERTEX_POINT('',#23);
#25=CARTESIAN_POINT('',(562.5,570.,5.));
#26=VERTEX_POINT('',#25);
#27=CARTESIAN_POINT('',(7.5,570.,5.));
#28=VERTEX_POINT('',#27);
#29=CARTESIAN_POINT('',(0.,562.5,5.));
#30=VERTEX_POINT('',#29);
#31=CARTESIAN_POINT('',(0.,7.5,5.));
#32=VERTEX_POINT('',#31);
#33=CARTESIAN_POINT('',(7.5,0.,0.));
#34=DIRECTION('',(1.,0.,0.));
#35=VECTOR('',#34,1.);
#36=LINE('',#33,#35);
#37=EDGE_CURVE('',#2,#4,#36,.T.);
#38=CARTESIAN_POINT('',(562.5,7.5,0.));
#39=DIRECTION('',(0.,0.,1.));
#40=DIRECTION('',(1.,0.,0.));
#41=AXIS2_PLACEMENT_3D('',#38,#39,#40);
#42=CIRCLE('',#41,7.5);
#43=EDGE_CURVE('',#4,#6,#42,.T.);
#44=CARTESIAN_POINT('',(570.,7.5,0.));
#45=DIRECTION('',(0.,1.,0.));
#46=VECTOR('',#45,1.);
#47=LINE('',#44,#46);
#48=EDGE_CURVE('',#6,#8,#47,.T.);
#49=CARTESIAN_POINT('',(562.5,562.5,0.));
#50=DIRECTION('',(0.,0.,1.));
#51=DIRECTION('',(1.,0.,0.));
#52=AXIS2_PLACEMENT_3D('',#49,#50,#51);
#53=CIRCLE('',#52,7.5);
#54=EDGE_CURVE('',#8,#10,#53,.T.);
#55=CARTESIAN_POINT('',(562.5,570.,0.));
#56=DIRECTION('',(-1.,0.,0.));
#57=VECTOR('',#56,1.);
#58=LINE('',#55,#57);
#59=EDGE_CURVE('',#10,#12,#58,.T.);
#60=CARTESIAN_POINT('',(7.5,562.5,0.));
#61=DIRECTION('',(0.,0.,1.));
#62=DIRECTION('',(1.,0.,0.));
#63=AXIS2_PLACEMENT_3D('',#60,#61,#62);
#64=CIRCLE('',#63,7.5);
#65=EDGE_CURVE('',#12,#14,#64,.T.);
#66=CARTESIAN_POINT('',(0.,562.5,0.));
#67=DIRECTION('',(0.,-1.,0.));
#68=VECTOR('',#67,1.);
#69=LINE('',#66,#68);
#70=EDGE_CURVE('',#14,#16,#69,.T.);
#71=CARTESIAN_POINT('',(7.5,7.5,0.));
#72=DIRECTION('',(0.,0.,1.));
#73=DIRECTION('',(1.,0.,0.));
#74=AXIS2_PLACEMENT_3D('',#71,#72,#73);
#75=CIRCLE('',#74,7.5);
#76=EDGE_CURVE('',#16,#2,#75,.T.);
#77=CARTESIAN_POINT('',(7.5,0.,5.));
#78=DIRECTION('',(1.,0.,0.));
#79=VECTOR('',#78,1.);
#80=LINE('',#77,#79);
#81=EDGE_CURVE('',#18,#20,#80,.T.);
#82=CARTESIAN_POINT('',(562.5,7.5,5.));
#83=DIRECTION('',(0.,0.,1.));
#84=DIRECTION('',(1.,0.,0.));
#85=AXIS2_PLACEMENT_3D('',#82,#83,#84);
#86=CIRCLE('',#85,7.5);
#87=EDGE_CURVE('',#20,#22,#86,.T.);
#88=CARTESIAN_POINT('',(570.,7.5,5.));
#89=DIRECTION('',(0.,1.,0.));
#90=VECTOR('',#89,1.);
#91=LINE('',#88,#90);
#92=EDGE_CURVE('',#22,#24,#91,.T.);
#93=CARTESIAN_POINT('',(562.5,562.5,5.));
#94=DIRECTION('',(0.,0.,1.));
#95=DIRECTION('',(1.,0.,0.));
#96=AXIS2_PLACEMENT_3D('',#93,#94,#95);
#97=CIRCLE('',#96,7.5);
#98=EDGE_CURVE('',#24,#26,#97,.T.);
#99=CARTESIAN_POINT('',(562.5,570.,5.));
#100=DIRECTION('',(-1.,0.,0.));
#101=VECTOR('',#100,1.);
#102=LINE('',#99,#101);
#103=EDGE_CURVE('',#26,#28,#102,.T.);
#104=CARTESIAN_POINT('',(7.5,562.5,5.));
#105=DIRECTION('',(0.,0.,1.));
#106=DIRECTION('',(1.,0.,0.));
#107=AXIS2_PLACEMENT_3D('',#104,#105,#106);
#108=CIRCLE('',#107,7.5);
#109=EDGE_CURVE('',#28,#30,#108,.T.);
#110=CARTESIAN_POINT('',(0.,562.5,5.));
#111=DIRECTION('',(0.,-1.,0.));
#112=VECTOR('',#111,1.);
#113=LINE('',#110,#112);
#114=EDGE_CURVE('',#30,#32,#113,.T.);
#115=CARTESIAN_POINT('',(7.5,7.5,5.));
#116=DIRECTION('',(0.,0.,1.));
#117=DIRECTION('',(1.,0.,0.));
#118=AXIS2_PLACEMENT_3D('',#115,#116,#117);
#119=CIRCLE('',#118,7.5);
#120=EDGE_CURVE('',#32,#18,#119,.T.);
#121=CARTESIAN_POINT('',(7.5,0.,0.));
#122=DIRECTION('',(0.,0.,1.));
#123=VECTOR('',#122,1.);
#124=LINE('',#121,#123);
#125=EDGE_CURVE('',#2,#18,#124,.T.);
#126=CARTESIAN_POINT('',(562.5,0.,0.));
#127=DIRECTION('',(0.,0.,1.));
#128=VECTOR('',#127,1.);
#129=LINE('',#126,#128);
#130=EDGE_CURVE('',#4,#20,#129,.T.);
#131=CARTESIAN_POINT('',(570.,7.5,0.));
#132=DIRECTION('',(0.,0.,1.));
#133=VECTOR('',#132,1.);
#134=LINE('',#131,#133);
#135=EDGE_CURVE('',#6,#22,#134,.T.);
#136=CARTESIAN_POINT('',(570.,562.5,0.));
#137=DIRECTION('',(0.,0.,1.));
#138=VECTOR('',#137,1.);
#139=LINE('',#136,#138);
#140=EDGE_CURVE('',#8,#24,#139,.T.);
#141=CARTESIAN_POINT('',(562.5,570.,0.));
#142=DIRECTION('',(0.,0.,1.));
#143=VECTOR('',#142,1.);
#144=LINE('',#141,#143);
#145=EDGE_CURVE('',#10,#26,#144,.T.);
#146=CARTESIAN_POINT('',(7.5,570.,0.));
#147=DIRECTION('',(0.,0.,1.));
#148=VECTOR('',#147,1.);
#149=LINE('',#146,#148);
#150=EDGE_CURVE('',#12,#28,#149,.T.);
#151=CARTESIAN_POINT('',(0.,562.5,0.));
#152=DIRECTION('',(0.,0.,1.));
#153=VECTOR('',#152,1.);
#154=LINE('',#151,#153);
#155=EDGE_CURVE('',#14,#30,#154,.T.);
#156=CARTESIAN_POINT('',(0.,7.5,0.));
#157=DIRECTION('',(0.,0.,1.));
#158=VECTOR('',#157,1.);
#159=LINE('',#156,#158);
#160=EDGE_CURVE('',#16,#32,#159,.T.);
#161=CARTESIAN_POINT('',(7.5,0.,0.));
#162=DIRECTION('',(0.,-1.,0.));
#163=DIRECTION('',(1.,0.,0.));
#164=AXIS2_PLACEMENT_3D('',#161,#162,#163);
#165=PLANE('',#164);
#166=ORIENTED_EDGE('',*,*,#37,.T.);
#167=ORIENTED_EDGE('',*,*,#130,.T.);
#168=ORIENTED_EDGE('',*,*,#81,.F.);
#169=ORIENTED_EDGE('',*,*,#125,.F.);
#170=EDGE_LOOP('',(#166,#167,#168,#169));
#171=FACE_OUTER_BOUND('',#170,.T.);
#172=ADVANCED_FACE('',(#171),#165,.T.);
#173=CARTESIAN_POINT('',(562.5,7.5,0.));
#174=DIRECTION('',(0.,0.,1.));
#175=DIRECTION('',(1.,0.,0.));
#176=AXIS2_PLACEMENT_3D('',#173,#174,#175);
#177=CYLINDRICAL_SURFACE('',#176,7.5);
#178=ORIENTED_EDGE('',*,*,#43,.T.);
#179=ORIENTED_EDGE('',*,*,#135,.T.);
#180=ORIENTED_EDGE('',*,*,#87,.F.);
#181=ORIENTED_EDGE('',*,*,#130,.F.);
#182=EDGE_LOOP('',(#178,#179,#180,#181));
#183=FACE_OUTER_BOUND('',#182,.T.);
#184=ADVANCED_FACE('',(#183),#177,.T.);
#185=CARTESIAN_POINT('',(570.,7.5,0.));
#186=DIRECTION('',(1.,-0.,0.));
#187=DIRECTION('',(0.,1.,0.));
#188=AXIS2_PLACEMENT_3D('',#185,#186,#187);
#189=PLANE('',#188);
#190=ORIENTED_EDGE('',*,*,#48,.T.);
#191=ORIENTED_EDGE('',*,*,#140,.T.);
#192=ORIENTED_EDGE('',*,*,#92,.F.);
#193=ORIENTED_EDGE('',*,*,#135,.F.);
#194=EDGE_LOOP('',(#190,#191,#192,#193));
#195=FACE_OUTER_BOUND('',#194,.T.);
#196=ADVANCED_FACE('',(#195),#189,.T.);
#197=CARTESIAN_POINT('',(562.5,562.5,0.));
#198=DIRECTION('',(0.,0.,1.));
#199=DIRECTION('',(1.,0.,0.));
#200=AXIS2_PLACEMENT_3D('',#197,#198,#199);
#201=CYLINDRICAL_SURFACE('',#200,7.5);
#202=ORIENTED_EDGE('',*,*,#54,.T.);
#203=ORIENTED_EDGE('',*,*,#145,.T.);
#204=ORIENTED_EDGE('',*,*,#98,.F.);
#205=ORIENTED_EDGE('',*,*,#140,.F.);
#206=EDGE_LOOP('',(#202,#203,#204,#205));
#207=FACE_OUTER_BOUND('',#206,.T.);
#208=ADVANCED_FACE('',(#207),#201,.T.);
#209=CARTESIAN_POINT('',(562.5,570.,0.));
#210=DIRECTION('',(0.,1.,0.));
#211=DIRECTION('',(-1.,0.,0.));
#212=AXIS2_PLACEMENT_3D('',#209,#210,#211);
#213=PLANE('',#212);
#214=ORIENTED_EDGE('',*,*,#59,.T.);
#215=ORIENTED_EDGE('',*,*,#150,.T.);
#216=ORIENTED_EDGE('',*,*,#103,.F.);
#217=ORIENTED_EDGE('',*,*,#145,.F.);
#218=EDGE_LOOP('',(#214,#215,#216,#217));
#219=FACE_OUTER_BOUND('',#218,.T.);
#220=ADVANCED_FACE('',(#219),#213,.T.);
#221=CARTESIAN_POINT('',(7.5,562.5,0.));
#222=DIRECTION('',(0.,0.,1.));
#223=DIRECTION('',(1.,0.,0.));
#224=AXIS2_PLACEMENT_3D('',#221,#222,#223);
#225=CYLINDRICAL_SURFACE('',#224,7.5);
#226=ORIENTED_EDGE('',*,*,#65,.T.);
#227=ORIENTED_EDGE('',*,*,#155,.T.);
#228=ORIENTED_EDGE('',*,*,#109,.F.);
#229=ORIENTED_EDGE('',*,*,#150,.F.);
#230=EDGE_LOOP('',(#226,#227,#228,#229));
#231=FACE_OUTER_BOUND('',#230,.T.);
#232=ADVANCED_FACE('',(#231),#225,.T.);
#233=CARTESIAN_POINT('',(0.,562.5,0.));
#234=DIRECTION('',(-1.,-0.,0.));
#235=DIRECTION('',(0.,-1.,0.));
#236=AXIS2_PLACEMENT_3D('',#233,#234,#235);
#237=PLANE('',#236);
#238=ORIENTED_EDGE('',*,*,#70,.T.);
#239=ORIENTED_EDGE('',*,*,#160,.T.);
#240=ORIENTED_EDGE('',*,*,#114,.F.);
#241=ORIENTED_EDGE('',*,*,#155,.F.);
#242=EDGE_LOOP('',(#238,#239,#240,#241));
#243=FACE_OUTER_BOUND('',#242,.T.);
#244=ADVANCED_FACE('',(#243),#237,.T.);
#245=CARTESIAN_POINT('',(7.5,7.5,0.));
#246=DIRECTION('',(0.,0.,1.));
#247=DIRECTION('',(1.,0.,0.));
#248=AXIS2_PLACEMENT_3D('',#245,#246,#247);
#249=CYLINDRICAL_SURFACE('',#248,7.5);
#250=ORIENTED_EDGE('',*,*,#76,.T.);
#251=ORIENTED_EDGE('',*,*,#125,.T.);
#252=ORIENTED_EDGE('',*,*,#120,.F.);
#253=ORIENTED_EDGE('',*,*,#160,.F.);
#254=EDGE_LOOP('',(#250,#251,#252,#253));
#255=FACE_OUTER_BOUND('',#254,.T.);
#256=ADVANCED_FACE('',(#255),#249,.T.);
#257=CARTESIAN_POINT('',(9.15,7.5,0.));
#258=VERTEX_POINT('',#257);
#259=CARTESIAN_POINT('',(5.85,7.5,0.));
#260=VERTEX_POINT('',#259);
#261=CARTESIAN_POINT('',(9.15,7.5,5.));
#262=VERTEX_POINT('',#261);
#263=CARTESIAN_POINT('',(5.85,7.5,5.));
#264=VERTEX_POINT('',#263);
#265=CARTESIAN_POINT('',(7.5,7.5,0.));
#266=DIRECTION('',(0.,0.,1.));
#267=DIRECTION('',(1.,0.,0.));
#268=AXIS2_PLACEMENT_3D('',#265,#266,#267);
#269=CIRCLE('',#268,1.65);
#270=CARTESIAN_POINT('',(7.5,7.5,5.));
#271=DIRECTION('',(0.,0.,1.));
#272=DIRECTION('',(1.,0.,0.));
#273=AXIS2_PLACEMENT_3D('',#270,#271,#272);
#274=CIRCLE('',#273,1.65);
#275=EDGE_CURVE('',#258,#260,#269,.T.);
#276=EDGE_CURVE('',#260,#258,#269,.T.);
#277=EDGE_CURVE('',#262,#264,#274,.T.);
#278=EDGE_CURVE('',#264,#262,#274,.T.);
#279=CARTESIAN_POINT('',(9.15,7.5,0.));
#280=DIRECTION('',(0.,0.,1.));
#281=VECTOR('',#280,1.);
#282=LINE('',#279,#281);
#283=EDGE_CURVE('',#258,#262,#282,.T.);
#284=CARTESIAN_POINT('',(5.85,7.5,0.));
#285=DIRECTION('',(0.,0.,1.));
#286=VECTOR('',#285,1.);
#287=LINE('',#284,#286);
#288=EDGE_CURVE('',#260,#264,#287,.T.);
#289=CARTESIAN_POINT('',(7.5,7.5,0.));
#290=DIRECTION('',(0.,0.,1.));
#291=DIRECTION('',(1.,0.,0.));
#292=AXIS2_PLACEMENT_3D('',#289,#290,#291);
#293=CYLINDRICAL_SURFACE('',#292,1.65);
#294=ORIENTED_EDGE('',*,*,#283,.T.);
#295=ORIENTED_EDGE('',*,*,#277,.T.);
#296=ORIENTED_EDGE('',*,*,#288,.F.);
#297=ORIENTED_EDGE('',*,*,#275,.F.);
#298=EDGE_LOOP('',(#294,#295,#296,#297));
#299=FACE_OUTER_BOUND('',#298,.T.);
#300=ADVANCED_FACE('',(#299),#293,.F.);
#301=CARTESIAN_POINT('',(7.5,7.5,0.));
#302=DIRECTION('',(0.,0.,1.));
#303=DIRECTION('',(1.,0.,0.));
#304=AXIS2_PLACEMENT_3D('',#301,#302,#303);
#305=CYLINDRICAL_SURFACE('',#304,1.65);
#306=ORIENTED_EDGE('',*,*,#288,.T.);
#307=ORIENTED_EDGE('',*,*,#278,.T.);
#308=ORIENTED_EDGE('',*,*,#283,.F.);
#309=ORIENTED_EDGE('',*,*,#276,.F.);
#310=EDGE_LOOP('',(#306,#307,#308,#309));
#311=FACE_OUTER_BOUND('',#310,.T.);
#312=ADVANCED_FACE('',(#311),#305,.F.);
#313=CARTESIAN_POINT('',(536.65,7.5,0.));
#314=VERTEX_POINT('',#313);
#315=CARTESIAN_POINT('',(533.35,7.5,0.));
#316=VERTEX_POINT('',#315);
#317=CARTESIAN_POINT('',(536.65,7.5,5.));
#318=VERTEX_POINT('',#317);
#319=CARTESIAN_POINT('',(533.35,7.5,5.));
#320=VERTEX_POINT('',#319);
#321=CARTESIAN_POINT('',(535.,7.5,0.));
#322=DIRECTION('',(0.,0.,1.));
#323=DIRECTION('',(1.,0.,0.));
#324=AXIS2_PLACEMENT_3D('',#321,#322,#323);
#325=CIRCLE('',#324,1.65);
#326=CARTESIAN_POINT('',(535.,7.5,5.));
#327=DIRECTION('',(0.,0.,1.));
#328=DIRECTION('',(1.,0.,0.));
#329=AXIS2_PLACEMENT_3D('',#326,#327,#328);
#330=CIRCLE('',#329,1.65);
#331=EDGE_CURVE('',#314,#316,#325,.T.);
#332=EDGE_CURVE('',#316,#314,#325,.T.);
#333=EDGE_CURVE('',#318,#320,#330,.T.);
#334=EDGE_CURVE('',#320,#318,#330,.T.);
#335=CARTESIAN_POINT('',(536.65,7.5,0.));
#336=DIRECTION('',(0.,0.,1.));
#337=VECTOR('',#336,1.);
#338=LINE('',#335,#337);
#339=EDGE_CURVE('',#314,#318,#338,.T.);
#340=CARTESIAN_POINT('',(533.35,7.5,0.));
#341=DIRECTION('',(0.,0.,1.));
#342=VECTOR('',#341,1.);
#343=LINE('',#340,#342);
#344=EDGE_CURVE('',#316,#320,#343,.T.);
#345=CARTESIAN_POINT('',(535.,7.5,0.));
#346=DIRECTION('',(0.,0.,1.));
#347=DIRECTION('',(1.,0.,0.));
#348=AXIS2_PLACEMENT_3D('',#345,#346,#347);
#349=CYLINDRICAL_SURFACE('',#348,1.65);
#350=ORIENTED_EDGE('',*,*,#339,.T.);
#351=ORIENTED_EDGE('',*,*,#333,.T.);
#352=ORIENTED_EDGE('',*,*,#344,.F.);
#353=ORIENTED_EDGE('',*,*,#331,.F.);
#354=EDGE_LOOP('',(#350,#351,#352,#353));
#355=FACE_OUTER_BOUND('',#354,.T.);
#356=ADVANCED_FACE('',(#355),#349,.F.);
#357=CARTESIAN_POINT('',(535.,7.5,0.));
#358=DIRECTION('',(0.,0.,1.));
#359=DIRECTION('',(1.,0.,0.));
#360=AXIS2_PLACEMENT_3D('',#357,#358,#359);
#361=CYLINDRICAL_SURFACE('',#360,1.65);
#362=ORIENTED_EDGE('',*,*,#344,.T.);
#363=ORIENTED_EDGE('',*,*,#334,.T.);
#364=ORIENTED_EDGE('',*,*,#339,.F.);
#365=ORIENTED_EDGE('',*,*,#332,.F.);
#366=EDGE_LOOP('',(#362,#363,#364,#365));
#367=FACE_OUTER_BOUND('',#366,.T.);
#368=ADVANCED_FACE('',(#367),#361,.F.);
#369=CARTESIAN_POINT('',(564.15,7.5,0.));
#370=VERTEX_POINT('',#369);
#371=CARTESIAN_POINT('',(560.85,7.5,0.));
#372=VERTEX_POINT('',#371);
#373=CARTESIAN_POINT('',(564.15,7.5,5.));
#374=VERTEX_POINT('',#373);
#375=CARTESIAN_POINT('',(560.85,7.5,5.));
#376=VERTEX_POINT('',#375);
#377=CARTESIAN_POINT('',(562.5,7.5,0.));
#378=DIRECTION('',(0.,0.,1.));
#379=DIRECTION('',(1.,0.,0.));
#380=AXIS2_PLACEMENT_3D('',#377,#378,#379);
#381=CIRCLE('',#380,1.65);
#382=CARTESIAN_POINT('',(562.5,7.5,5.));
#383=DIRECTION('',(0.,0.,1.));
#384=DIRECTION('',(1.,0.,0.));
#385=AXIS2_PLACEMENT_3D('',#382,#383,#384);
#386=CIRCLE('',#385,1.65);
#387=EDGE_CURVE('',#370,#372,#381,.T.);
#388=EDGE_CURVE('',#372,#370,#381,.T.);
#389=EDGE_CURVE('',#374,#376,#386,.T.);
#390=EDGE_CURVE('',#376,#374,#386,.T.);
#391=CARTESIAN_POINT('',(564.15,7.5,0.));
#392=DIRECTION('',(0.,0.,1.));
#393=VECTOR('',#392,1.);
#394=LINE('',#391,#393);
#395=EDGE_CURVE('',#370,#374,#394,.T.);
#396=CARTESIAN_POINT('',(560.85,7.5,0.));
#397=DIRECTION('',(0.,0.,1.));
#398=VECTOR('',#397,1.);
#399=LINE('',#396,#398);
#400=EDGE_CURVE('',#372,#376,#399,.T.);
#401=CARTESIAN_POINT('',(562.5,7.5,0.));
#402=DIRECTION('',(0.,0.,1.));
#403=DIRECTION('',(1.,0.,0.));
#404=AXIS2_PLACEMENT_3D('',#401,#402,#403);
#405=CYLINDRICAL_SURFACE('',#404,1.65);
#406=ORIENTED_EDGE('',*,*,#395,.T.);
#407=ORIENTED_EDGE('',*,*,#389,.T.);
#408=ORIENTED_EDGE('',*,*,#400,.F.);
#409=ORIENTED_EDGE('',*,*,#387,.F.);
#410=EDGE_LOOP('',(#406,#407,#408,#409));
#411=FACE_OUTER_BOUND('',#410,.T.);
#412=ADVANCED_FACE('',(#411),#405,.F.);
#413=CARTESIAN_POINT('',(562.5,7.5,0.));
#414=DIRECTION('',(0.,0.,1.));
#415=DIRECTION('',(1.,0.,0.));
#416=AXIS2_PLACEMENT_3D('',#413,#414,#415);
#417=CYLINDRICAL_SURFACE('',#416,1.65);
#418=ORIENTED_EDGE('',*,*,#400,.T.);
#419=ORIENTED_EDGE('',*,*,#390,.T.);
#420=ORIENTED_EDGE('',*,*,#395,.F.);
#421=ORIENTED_EDGE('',*,*,#388,.F.);
#422=EDGE_LOOP('',(#418,#419,#420,#421));
#423=FACE_OUTER_BOUND('',#422,.T.);
#424=ADVANCED_FACE('',(#423),#417,.F.);
#425=CARTESIAN_POINT('',(9.15,562.5,0.));
#426=VERTEX_POINT('',#425);
#427=CARTESIAN_POINT('',(5.85,562.5,0.));
#428=VERTEX_POINT('',#427);
#429=CARTESIAN_POINT('',(9.15,562.5,5.));
#430=VERTEX_POINT('',#429);
#431=CARTESIAN_POINT('',(5.85,562.5,5.));
#432=VERTEX_POINT('',#431);
#433=CARTESIAN_POINT('',(7.5,562.5,0.));
#434=DIRECTION('',(0.,0.,1.));
#435=DIRECTION('',(1.,0.,0.));
#436=AXIS2_PLACEMENT_3D('',#433,#434,#435);
#437=CIRCLE('',#436,1.65);
#438=CARTESIAN_POINT('',(7.5,562.5,5.));
#439=DIRECTION('',(0.,0.,1.));
#440=DIRECTION('',(1.,0.,0.));
#441=AXIS2_PLACEMENT_3D('',#438,#439,#440);
#442=CIRCLE('',#441,1.65);
#443=EDGE_CURVE('',#426,#428,#437,.T.);
#444=EDGE_CURVE('',#428,#426,#437,.T.);
#445=EDGE_CURVE('',#430,#432,#442,.T.);
#446=EDGE_CURVE('',#432,#430,#442,.T.);
#447=CARTESIAN_POINT('',(9.15,562.5,0.));
#448=DIRECTION('',(0.,0.,1.));
#449=VECTOR('',#448,1.);
#450=LINE('',#447,#449);
#451=EDGE_CURVE('',#426,#430,#450,.T.);
#452=CARTESIAN_POINT('',(5.85,562.5,0.));
#453=DIRECTION('',(0.,0.,1.));
#454=VECTOR('',#453,1.);
#455=LINE('',#452,#454);
#456=EDGE_CURVE('',#428,#432,#455,.T.);
#457=CARTESIAN_POINT('',(7.5,562.5,0.));
#458=DIRECTION('',(0.,0.,1.));
#459=DIRECTION('',(1.,0.,0.));
#460=AXIS2_PLACEMENT_3D('',#457,#458,#459);
#461=CYLINDRICAL_SURFACE('',#460,1.65);
#462=ORIENTED_EDGE('',*,*,#451,.T.);
#463=ORIENTED_EDGE('',*,*,#445,.T.);
#464=ORIENTED_EDGE('',*,*,#456,.F.);
#465=ORIENTED_EDGE('',*,*,#443,.F.);
#466=EDGE_LOOP('',(#462,#463,#464,#465));
#467=FACE_OUTER_BOUND('',#466,.T.);
#468=ADVANCED_FACE('',(#467),#461,.F.);
#469=CARTESIAN_POINT('',(7.5,562.5,0.));
#470=DIRECTION('',(0.,0.,1.));
#471=DIRECTION('',(1.,0.,0.));
#472=AXIS2_PLACEMENT_3D('',#469,#470,#471);
#473=CYLINDRICAL_SURFACE('',#472,1.65);
#474=ORIENTED_EDGE('',*,*,#456,.T.);
#475=ORIENTED_EDGE('',*,*,#446,.T.);
#476=ORIENTED_EDGE('',*,*,#451,.F.);
#477=ORIENTED_EDGE('',*,*,#444,.F.);
#478=EDGE_LOOP('',(#474,#475,#476,#477));
#479=FACE_OUTER_BOUND('',#478,.T.);
#480=ADVANCED_FACE('',(#479),#473,.F.);
#481=CARTESIAN_POINT('',(536.65,562.5,0.));
#482=VERTEX_POINT('',#481);
#483=CARTESIAN_POINT('',(533.35,562.5,0.));
#484=VERTEX_POINT('',#483);
#485=CARTESIAN_POINT('',(536.65,562.5,5.));
#486=VERTEX_POINT('',#485);
#487=CARTESIAN_POINT('',(533.35,562.5,5.));
#488=VERTEX_POINT('',#487);
#489=CARTESIAN_POINT('',(535.,562.5,0.));
#490=DIRECTION('',(0.,0.,1.));
#491=DIRECTION('',(1.,0.,0.));
#492=AXIS2_PLACEMENT_3D('',#489,#490,#491);
#493=CIRCLE('',#492,1.65);
#494=CARTESIAN_POINT('',(535.,562.5,5.));
#495=DIRECTION('',(0.,0.,1.));
#496=DIRECTION('',(1.,0.,0.));
#497=AXIS2_PLACEMENT_3D('',#494,#495,#496);
#498=CIRCLE('',#497,1.65);
#499=EDGE_CURVE('',#482,#484,#493,.T.);
#500=EDGE_CURVE('',#484,#482,#493,.T.);
#501=EDGE_CURVE('',#486,#488,#498,.T.);
#502=EDGE_CURVE('',#488,#486,#498,.T.);
#503=CARTESIAN_POINT('',(536.65,562.5,0.));
#504=DIRECTION('',(0.,0.,1.));
#505=VECTOR('',#504,1.);
#506=LINE('',#503,#505);
#507=EDGE_CURVE('',#482,#486,#506,.T.);
#508=CARTESIAN_POINT('',(533.35,562.5,0.));
#509=DIRECTION('',(0.,0.,1.));
#510=VECTOR('',#509,1.);
#511=LINE('',#508,#510);
#512=EDGE_CURVE('',#484,#488,#511,.T.);
#513=CARTESIAN_POINT('',(535.,562.5,0.));
#514=DIRECTION('',(0.,0.,1.));
#515=DIRECTION('',(1.,0.,0.));
#516=AXIS2_PLACEMENT_3D('',#513,#514,#515);
#517=CYLINDRICAL_SURFACE('',#516,1.65);
#518=ORIENTED_EDGE('',*,*,#507,.T.);
#519=ORIENTED_EDGE('',*,*,#501,.T.);
#520=ORIENTED_EDGE('',*,*,#512,.F.);
#521=ORIENTED_EDGE('',*,*,#499,.F.);
#522=EDGE_LOOP('',(#518,#519,#520,#521));
#523=FACE_OUTER_BOUND('',#522,.T.);
#524=ADVANCED_FACE('',(#523),#517,.F.);
#525=CARTESIAN_POINT('',(535.,562.5,0.));
#526=DIRECTION('',(0.,0.,1.));
#527=DIRECTION('',(1.,0.,0.));
#528=AXIS2_PLACEMENT_3D('',#525,#526,#527);
#529=CYLINDRICAL_SURFACE('',#528,1.65);
#530=ORIENTED_EDGE('',*,*,#512,.T.);
#531=ORIENTED_EDGE('',*,*,#502,.T.);
#532=ORIENTED_EDGE('',*,*,#507,.F.);
#533=ORIENTED_EDGE('',*,*,#500,.F.);
#534=EDGE_LOOP('',(#530,#531,#532,#533));
#535=FACE_OUTER_BOUND('',#534,.T.);
#536=ADVANCED_FACE('',(#535),#529,.F.);
#537=CARTESIAN_POINT('',(564.15,562.5,0.));
#538=VERTEX_POINT('',#537);
#539=CARTESIAN_POINT('',(560.85,562.5,0.));
#540=VERTEX_POINT('',#539);
#541=CARTESIAN_POINT('',(564.15,562.5,5.));
#542=VERTEX_POINT('',#541);
#543=CARTESIAN_POINT('',(560.85,562.5,5.));
#544=VERTEX_POINT('',#543);
#545=CARTESIAN_POINT('',(562.5,562.5,0.));
#546=DIRECTION('',(0.,0.,1.));
#547=DIRECTION('',(1.,0.,0.));
#548=AXIS2_PLACEMENT_3D('',#545,#546,#547);
#549=CIRCLE('',#548,1.65);
#550=CARTESIAN_POINT('',(562.5,562.5,5.));
#551=DIRECTION('',(0.,0.,1.));
#552=DIRECTION('',(1.,0.,0.));
#553=AXIS2_PLACEMENT_3D('',#550,#551,#552);
#554=CIRCLE('',#553,1.65);
#555=EDGE_CURVE('',#538,#540,#549,.T.);
#556=EDGE_CURVE('',#540,#538,#549,.T.);
#557=EDGE_CURVE('',#542,#544,#554,.T.);
#558=EDGE_CURVE('',#544,#542,#554,.T.);
#559=CARTESIAN_POINT('',(564.15,562.5,0.));
#560=DIRECTION('',(0.,0.,1.));
#561=VECTOR('',#560,1.);
#562=LINE('',#559,#561);
#563=EDGE_CURVE('',#538,#542,#562,.T.);
#564=CARTESIAN_POINT('',(560.85,562.5,0.));
#565=DIRECTION('',(0.,0.,1.));
#566=VECTOR('',#565,1.);
#567=LINE('',#564,#566);
#568=EDGE_CURVE('',#540,#544,#567,.T.);
#569=CARTESIAN_POINT('',(562.5,562.5,0.));
#570=DIRECTION('',(0.,0.,1.));
#571=DIRECTION('',(1.,0.,0.));
#572=AXIS2_PLACEMENT_3D('',#569,#570,#571);
#573=CYLINDRICAL_SURFACE('',#572,1.65);
#574=ORIENTED_EDGE('',*,*,#563,.T.);
#575=ORIENTED_EDGE('',*,*,#557,.T.);
#576=ORIENTED_EDGE('',*,*,#568,.F.);
#577=ORIENTED_EDGE('',*,*,#555,.F.);
#578=EDGE_LOOP('',(#574,#575,#576,#577));
#579=FACE_OUTER_BOUND('',#578,.T.);
#580=ADVANCED_FACE('',(#579),#573,.F.);
#581=CARTESIAN_POINT('',(562.5,562.5,0.));
#582=DIRECTION('',(0.,0.,1.));
#583=DIRECTION('',(1.,0.,0.));
#584=AXIS2_PLACEMENT_3D('',#581,#582,#583);
#585=CYLINDRICAL_SURFACE('',#584,1.65);
#586=ORIENTED_EDGE('',*,*,#568,.T.);
#587=ORIENTED_EDGE('',*,*,#558,.T.);
#588=ORIENTED_EDGE('',*,*,#563,.F.);
#589=ORIENTED_EDGE('',*,*,#556,.F.);
#590=EDGE_LOOP('',(#586,#587,#588,#589));
#591=FACE_OUTER_BOUND('',#590,.T.);
#592=ADVANCED_FACE('',(#591),#585,.F.);
#593=ORIENTED_EDGE('',*,*,#76,.F.);
#594=ORIENTED_EDGE('',*,*,#70,.F.);
#595=ORIENTED_EDGE('',*,*,#65,.F.);
#596=ORIENTED_EDGE('',*,*,#59,.F.);
#597=ORIENTED_EDGE('',*,*,#54,.F.);
#598=ORIENTED_EDGE('',*,*,#48,.F.);
#599=ORIENTED_EDGE('',*,*,#43,.F.);
#600=ORIENTED_EDGE('',*,*,#37,.F.);
#601=EDGE_LOOP('',(#593,#594,#595,#596,#597,#598,#599,#600));
#602=ORIENTED_EDGE('',*,*,#275,.T.);
#603=ORIENTED_EDGE('',*,*,#276,.T.);
#604=EDGE_LOOP('',(#602,#603));
#605=ORIENTED_EDGE('',*,*,#331,.T.);
#606=ORIENTED_EDGE('',*,*,#332,.T.);
#607=EDGE_LOOP('',(#605,#606));
#608=ORIENTED_EDGE('',*,*,#387,.T.);
#609=ORIENTED_EDGE('',*,*,#388,.T.);
#610=EDGE_LOOP('',(#608,#609));
#611=ORIENTED_EDGE('',*,*,#443,.T.);
#612=ORIENTED_EDGE('',*,*,#444,.T.);
#613=EDGE_LOOP('',(#611,#612));
#614=ORIENTED_EDGE('',*,*,#499,.T.);
#615=ORIENTED_EDGE('',*,*,#500,.T.);
#616=EDGE_LOOP('',(#614,#615));
#617=ORIENTED_EDGE('',*,*,#555,.T.);
#618=ORIENTED_EDGE('',*,*,#556,.T.);
#619=EDGE_LOOP('',(#617,#618));
#620=CARTESIAN_POINT('',(0.,0.,0.));
#621=DIRECTION('',(0.,0.,1.));
#622=DIRECTION('',(1.,0.,0.));
#623=AXIS2_PLACEMENT_3D('',#620,#621,#622);
#624=PLANE('',#623);
#625=FACE_OUTER_BOUND('',#601,.T.);
#626=FACE_BOUND('',#604,.T.);
#627=FACE_BOUND('',#607,.T.);
#628=FACE_BOUND('',#610,.T.);
#629=FACE_BOUND('',#613,.T.);
#630=FACE_BOUND('',#616,.T.);
#631=FACE_BOUND('',#619,.T.);
#632=ADVANCED_FACE('',(#625,#626,#627,#628,#629,#630,#631),#624,.F.);
#633=ORIENTED_EDGE('',*,*,#81,.T.);
#634=ORIENTED_EDGE('',*,*,#87,.T.);
#635=ORIENTED_EDGE('',*,*,#92,.T.);
#636=ORIENTED_EDGE('',*,*,#98,.T.);
#637=ORIENTED_EDGE('',*,*,#103,.T.);
#638=ORIENTED_EDGE('',*,*,#109,.T.);
#639=ORIENTED_EDGE('',*,*,#114,.T.);
#640=ORIENTED_EDGE('',*,*,#120,.T.);
#641=EDGE_LOOP('',(#633,#634,#635,#636,#637,#638,#639,#640));
#642=ORIENTED_EDGE('',*,*,#278,.F.);
#643=ORIENTED_EDGE('',*,*,#277,.F.);
#644=EDGE_LOOP('',(#642,#643));
#645=ORIENTED_EDGE('',*,*,#334,.F.);
#646=ORIENTED_EDGE('',*,*,#333,.F.);
#647=EDGE_LOOP('',(#645,#646));
#648=ORIENTED_EDGE('',*,*,#390,.F.);
#649=ORIENTED_EDGE('',*,*,#389,.F.);
#650=EDGE_LOOP('',(#648,#649));
#651=ORIENTED_EDGE('',*,*,#446,.F.);
#652=ORIENTED_EDGE('',*,*,#445,.F.);
#653=EDGE_LOOP('',(#651,#652));
#654=ORIENTED_EDGE('',*,*,#502,.F.);
#655=ORIENTED_EDGE('',*,*,#501,.F.);
#656=EDGE_LOOP('',(#654,#655));
#657=ORIENTED_EDGE('',*,*,#558,.F.);
#658=ORIENTED_EDGE('',*,*,#557,.F.);
#659=EDGE_LOOP('',(#657,#658));
#660=CARTESIAN_POINT('',(0.,0.,5.));
#661=DIRECTION('',(0.,0.,1.));
#662=DIRECTION('',(1.,0.,0.));
#663=AXIS2_PLACEMENT_3D('',#660,#661,#662);
#664=PLANE('',#663);
#665=FACE_OUTER_BOUND('',#641,.T.);
#666=FACE_BOUND('',#644,.T.);
#667=FACE_BOUND('',#647,.T.);
#668=FACE_BOUND('',#650,.T.);
#669=FACE_BOUND('',#653,.T.);
#670=FACE_BOUND('',#656,.T.);
#671=FACE_BOUND('',#659,.T.);
#672=ADVANCED_FACE('',(#665,#666,#667,#668,#669,#670,#671),#664,.T.);
#673=CLOSED_SHELL('',(#172,#184,#196,#208,#220,#232,#244,#256,#300,#312,#356,#368,#412,#424,#468,#480,#524,#536,#580,#592,#632,#672));
#674=CARTESIAN_POINT('',(591.1,0.,0.));
#675=VERTEX_POINT('',#674);
#676=CARTESIAN_POINT('',(1146.1,0.,0.));
#677=VERTEX_POINT('',#676);
#678=CARTESIAN_POINT('',(1153.6,7.5,0.));
#679=VERTEX_POINT('',#678);
#680=CARTESIAN_POINT('',(1153.6,562.5,0.));
#681=VERTEX_POINT('',#680);
#682=CARTESIAN_POINT('',(1146.1,570.,0.));
#683=VERTEX_POINT('',#682);
#684=CARTESIAN_POINT('',(591.1,570.,0.));
#685=VERTEX_POINT('',#684);
#686=CARTESIAN_POINT('',(583.6,562.5,0.));
#687=VERTEX_POINT('',#686);
#688=CARTESIAN_POINT('',(583.6,7.5,0.));
#689=VERTEX_POINT('',#688);
#690=CARTESIAN_POINT('',(591.1,0.,5.));
#691=VERTEX_POINT('',#690);
#692=CARTESIAN_POINT('',(1146.1,0.,5.));
#693=VERTEX_POINT('',#692);
#694=CARTESIAN_POINT('',(1153.6,7.5,5.));
#695=VERTEX_POINT('',#694);
#696=CARTESIAN_POINT('',(1153.6,562.5,5.));
#697=VERTEX_POINT('',#696);
#698=CARTESIAN_POINT('',(1146.1,570.,5.));
#699=VERTEX_POINT('',#698);
#700=CARTESIAN_POINT('',(591.1,570.,5.));
#701=VERTEX_POINT('',#700);
#702=CARTESIAN_POINT('',(583.6,562.5,5.));
#703=VERTEX_POINT('',#702);
#704=CARTESIAN_POINT('',(583.6,7.5,5.));
#705=VERTEX_POINT('',#704);
#706=CARTESIAN_POINT('',(591.1,0.,0.));
#707=DIRECTION('',(1.,0.,0.));
#708=VECTOR('',#707,1.);
#709=LINE('',#706,#708);
#710=EDGE_CURVE('',#675,#677,#709,.T.);
#711=CARTESIAN_POINT('',(1146.1,7.5,0.));
#712=DIRECTION('',(0.,0.,1.));
#713=DIRECTION('',(1.,0.,0.));
#714=AXIS2_PLACEMENT_3D('',#711,#712,#713);
#715=CIRCLE('',#714,7.5);
#716=EDGE_CURVE('',#677,#679,#715,.T.);
#717=CARTESIAN_POINT('',(1153.6,7.5,0.));
#718=DIRECTION('',(0.,1.,0.));
#719=VECTOR('',#718,1.);
#720=LINE('',#717,#719);
#721=EDGE_CURVE('',#679,#681,#720,.T.);
#722=CARTESIAN_POINT('',(1146.1,562.5,0.));
#723=DIRECTION('',(0.,0.,1.));
#724=DIRECTION('',(1.,0.,0.));
#725=AXIS2_PLACEMENT_3D('',#722,#723,#724);
#726=CIRCLE('',#725,7.5);
#727=EDGE_CURVE('',#681,#683,#726,.T.);
#728=CARTESIAN_POINT('',(1146.1,570.,0.));
#729=DIRECTION('',(-1.,0.,0.));
#730=VECTOR('',#729,1.);
#731=LINE('',#728,#730);
#732=EDGE_CURVE('',#683,#685,#731,.T.);
#733=CARTESIAN_POINT('',(591.1,562.5,0.));
#734=DIRECTION('',(0.,0.,1.));
#735=DIRECTION('',(1.,0.,0.));
#736=AXIS2_PLACEMENT_3D('',#733,#734,#735);
#737=CIRCLE('',#736,7.5);
#738=EDGE_CURVE('',#685,#687,#737,.T.);
#739=CARTESIAN_POINT('',(583.6,562.5,0.));
#740=DIRECTION('',(0.,-1.,0.));
#741=VECTOR('',#740,1.);
#742=LINE('',#739,#741);
#743=EDGE_CURVE('',#687,#689,#742,.T.);
#744=CARTESIAN_POINT('',(591.1,7.5,0.));
#745=DIRECTION('',(0.,0.,1.));
#746=DIRECTION('',(1.,0.,0.));
#747=AXIS2_PLACEMENT_3D('',#744,#745,#746);
#748=CIRCLE('',#747,7.5);
#749=EDGE_CURVE('',#689,#675,#748,.T.);
#750=CARTESIAN_POINT('',(591.1,0.,5.));
#751=DIRECTION('',(1.,0.,0.));
#752=VECTOR('',#751,1.);
#753=LINE('',#750,#752);
#754=EDGE_CURVE('',#691,#693,#753,.T.);
#755=CARTESIAN_POINT('',(1146.1,7.5,5.));
#756=DIRECTION('',(0.,0.,1.));
#757=DIRECTION('',(1.,0.,0.));
#758=AXIS2_PLACEMENT_3D('',#755,#756,#757);
#759=CIRCLE('',#758,7.5);
#760=EDGE_CURVE('',#693,#695,#759,.T.);
#761=CARTESIAN_POINT('',(1153.6,7.5,5.));
#762=DIRECTION('',(0.,1.,0.));
#763=VECTOR('',#762,1.);
#764=LINE('',#761,#763);
#765=EDGE_CURVE('',#695,#697,#764,.T.);
#766=CARTESIAN_POINT('',(1146.1,562.5,5.));
#767=DIRECTION('',(0.,0.,1.));
#768=DIRECTION('',(1.,0.,0.));
#769=AXIS2_PLACEMENT_3D('',#766,#767,#768);
#770=CIRCLE('',#769,7.5);
#771=EDGE_CURVE('',#697,#699,#770,.T.);
#772=CARTESIAN_POINT('',(1146.1,570.,5.));
#773=DIRECTION('',(-1.,0.,0.));
#774=VECTOR('',#773,1.);
#775=LINE('',#772,#774);
#776=EDGE_CURVE('',#699,#701,#775,.T.);
#777=CARTESIAN_POINT('',(591.1,562.5,5.));
#778=DIRECTION('',(0.,0.,1.));
#779=DIRECTION('',(1.,0.,0.));
#780=AXIS2_PLACEMENT_3D('',#777,#778,#779);
#781=CIRCLE('',#780,7.5);
#782=EDGE_CURVE('',#701,#703,#781,.T.);
#783=CARTESIAN_POINT('',(583.6,562.5,5.));
#784=DIRECTION('',(0.,-1.,0.));
#785=VECTOR('',#784,1.);
#786=LINE('',#783,#785);
#787=EDGE_CURVE('',#703,#705,#786,.T.);
#788=CARTESIAN_POINT('',(591.1,7.5,5.));
#789=DIRECTION('',(0.,0.,1.));
#790=DIRECTION('',(1.,0.,0.));
#791=AXIS2_PLACEMENT_3D('',#788,#789,#790);
#792=CIRCLE('',#791,7.5);
#793=EDGE_CURVE('',#705,#691,#792,.T.);
#794=CARTESIAN_POINT('',(591.1,0.,0.));
#795=DIRECTION('',(0.,0.,1.));
#796=VECTOR('',#795,1.);
#797=LINE('',#794,#796);
#798=EDGE_CURVE('',#675,#691,#797,.T.);
#799=CARTESIAN_POINT('',(1146.1,0.,0.));
#800=DIRECTION('',(0.,0.,1.));
#801=VECTOR('',#800,1.);
#802=LINE('',#799,#801);
#803=EDGE_CURVE('',#677,#693,#802,.T.);
#804=CARTESIAN_POINT('',(1153.6,7.5,0.));
#805=DIRECTION('',(0.,0.,1.));
#806=VECTOR('',#805,1.);
#807=LINE('',#804,#806);
#808=EDGE_CURVE('',#679,#695,#807,.T.);
#809=CARTESIAN_POINT('',(1153.6,562.5,0.));
#810=DIRECTION('',(0.,0.,1.));
#811=VECTOR('',#810,1.);
#812=LINE('',#809,#811);
#813=EDGE_CURVE('',#681,#697,#812,.T.);
#814=CARTESIAN_POINT('',(1146.1,570.,0.));
#815=DIRECTION('',(0.,0.,1.));
#816=VECTOR('',#815,1.);
#817=LINE('',#814,#816);
#818=EDGE_CURVE('',#683,#699,#817,.T.);
#819=CARTESIAN_POINT('',(591.1,570.,0.));
#820=DIRECTION('',(0.,0.,1.));
#821=VECTOR('',#820,1.);
#822=LINE('',#819,#821);
#823=EDGE_CURVE('',#685,#701,#822,.T.);
#824=CARTESIAN_POINT('',(583.6,562.5,0.));
#825=DIRECTION('',(0.,0.,1.));
#826=VECTOR('',#825,1.);
#827=LINE('',#824,#826);
#828=EDGE_CURVE('',#687,#703,#827,.T.);
#829=CARTESIAN_POINT('',(583.6,7.5,0.));
#830=DIRECTION('',(0.,0.,1.));
#831=VECTOR('',#830,1.);
#832=LINE('',#829,#831);
#833=EDGE_CURVE('',#689,#705,#832,.T.);
#834=CARTESIAN_POINT('',(591.1,0.,0.));
#835=DIRECTION('',(0.,-1.,0.));
#836=DIRECTION('',(1.,0.,0.));
#837=AXIS2_PLACEMENT_3D('',#834,#835,#836);
#838=PLANE('',#837);
#839=ORIENTED_EDGE('',*,*,#710,.T.);
#840=ORIENTED_EDGE('',*,*,#803,.T.);
#841=ORIENTED_EDGE('',*,*,#754,.F.);
#842=ORIENTED_EDGE('',*,*,#798,.F.);
#843=EDGE_LOOP('',(#839,#840,#841,#842));
#844=FACE_OUTER_BOUND('',#843,.T.);
#845=ADVANCED_FACE('',(#844),#838,.T.);
#846=CARTESIAN_POINT('',(1146.1,7.5,0.));
#847=DIRECTION('',(0.,0.,1.));
#848=DIRECTION('',(1.,0.,0.));
#849=AXIS2_PLACEMENT_3D('',#846,#847,#848);
#850=CYLINDRICAL_SURFACE('',#849,7.5);
#851=ORIENTED_EDGE('',*,*,#716,.T.);
#852=ORIENTED_EDGE('',*,*,#808,.T.);
#853=ORIENTED_EDGE('',*,*,#760,.F.);
#854=ORIENTED_EDGE('',*,*,#803,.F.);
#855=EDGE_LOOP('',(#851,#852,#853,#854));
#856=FACE_OUTER_BOUND('',#855,.T.);
#857=ADVANCED_FACE('',(#856),#850,.T.);
#858=CARTESIAN_POINT('',(1153.6,7.5,0.));
#859=DIRECTION('',(1.,-0.,0.));
#860=DIRECTION('',(0.,1.,0.));
#861=AXIS2_PLACEMENT_3D('',#858,#859,#860);
#862=PLANE('',#861);
#863=ORIENTED_EDGE('',*,*,#721,.T.);
#864=ORIENTED_EDGE('',*,*,#813,.T.);
#865=ORIENTED_EDGE('',*,*,#765,.F.);
#866=ORIENTED_EDGE('',*,*,#808,.F.);
#867=EDGE_LOOP('',(#863,#864,#865,#866));
#868=FACE_OUTER_BOUND('',#867,.T.);
#869=ADVANCED_FACE('',(#868),#862,.T.);
#870=CARTESIAN_POINT('',(1146.1,562.5,0.));
#871=DIRECTION('',(0.,0.,1.));
#872=DIRECTION('',(1.,0.,0.));
#873=AXIS2_PLACEMENT_3D('',#870,#871,#872);
#874=CYLINDRICAL_SURFACE('',#873,7.5);
#875=ORIENTED_EDGE('',*,*,#727,.T.);
#876=ORIENTED_EDGE('',*,*,#818,.T.);
#877=ORIENTED_EDGE('',*,*,#771,.F.);
#878=ORIENTED_EDGE('',*,*,#813,.F.);
#879=EDGE_LOOP('',(#875,#876,#877,#878));
#880=FACE_OUTER_BOUND('',#879,.T.);
#881=ADVANCED_FACE('',(#880),#874,.T.);
#882=CARTESIAN_POINT('',(1146.1,570.,0.));
#883=DIRECTION('',(0.,1.,0.));
#884=DIRECTION('',(-1.,0.,0.));
#885=AXIS2_PLACEMENT_3D('',#882,#883,#884);
#886=PLANE('',#885);
#887=ORIENTED_EDGE('',*,*,#732,.T.);
#888=ORIENTED_EDGE('',*,*,#823,.T.);
#889=ORIENTED_EDGE('',*,*,#776,.F.);
#890=ORIENTED_EDGE('',*,*,#818,.F.);
#891=EDGE_LOOP('',(#887,#888,#889,#890));
#892=FACE_OUTER_BOUND('',#891,.T.);
#893=ADVANCED_FACE('',(#892),#886,.T.);
#894=CARTESIAN_POINT('',(591.1,562.5,0.));
#895=DIRECTION('',(0.,0.,1.));
#896=DIRECTION('',(1.,0.,0.));
#897=AXIS2_PLACEMENT_3D('',#894,#895,#896);
#898=CYLINDRICAL_SURFACE('',#897,7.5);
#899=ORIENTED_EDGE('',*,*,#738,.T.);
#900=ORIENTED_EDGE('',*,*,#828,.T.);
#901=ORIENTED_EDGE('',*,*,#782,.F.);
#902=ORIENTED_EDGE('',*,*,#823,.F.);
#903=EDGE_LOOP('',(#899,#900,#901,#902));
#904=FACE_OUTER_BOUND('',#903,.T.);
#905=ADVANCED_FACE('',(#904),#898,.T.);
#906=CARTESIAN_POINT('',(583.6,562.5,0.));
#907=DIRECTION('',(-1.,-0.,0.));
#908=DIRECTION('',(0.,-1.,0.));
#909=AXIS2_PLACEMENT_3D('',#906,#907,#908);
#910=PLANE('',#909);
#911=ORIENTED_EDGE('',*,*,#743,.T.);
#912=ORIENTED_EDGE('',*,*,#833,.T.);
#913=ORIENTED_EDGE('',*,*,#787,.F.);
#914=ORIENTED_EDGE('',*,*,#828,.F.);
#915=EDGE_LOOP('',(#911,#912,#913,#914));
#916=FACE_OUTER_BOUND('',#915,.T.);
#917=ADVANCED_FACE('',(#916),#910,.T.);
#918=CARTESIAN_POINT('',(591.1,7.5,0.));
#919=DIRECTION('',(0.,0.,1.));
#920=DIRECTION('',(1.,0.,0.));
#921=AXIS2_PLACEMENT_3D('',#918,#919,#920);
#922=CYLINDRICAL_SURFACE('',#921,7.5);
#923=ORIENTED_EDGE('',*,*,#749,.T.);
#924=ORIENTED_EDGE('',*,*,#798,.T.);
#925=ORIENTED_EDGE('',*,*,#793,.F.);
#926=ORIENTED_EDGE('',*,*,#833,.F.);
#927=EDGE_LOOP('',(#923,#924,#925,#926));
#928=FACE_OUTER_BOUND('',#927,.T.);
#929=ADVANCED_FACE('',(#928),#922,.T.);
#930=CARTESIAN_POINT('',(592.75,562.5,0.));
#931=VERTEX_POINT('',#930);
#932=CARTESIAN_POINT('',(589.45,562.5,0.));
#933=VERTEX_POINT('',#932);
#934=CARTESIAN_POINT('',(592.75,562.5,5.));
#935=VERTEX_POINT('',#934);
#936=CARTESIAN_POINT('',(589.45,562.5,5.));
#937=VERTEX_POINT('',#936);
#938=CARTESIAN_POINT('',(591.1,562.5,0.));
#939=DIRECTION('',(0.,0.,1.));
#940=DIRECTION('',(1.,0.,0.));
#941=AXIS2_PLACEMENT_3D('',#938,#939,#940);
#942=CIRCLE('',#941,1.65);
#943=CARTESIAN_POINT('',(591.1,562.5,5.));
#944=DIRECTION('',(0.,0.,1.));
#945=DIRECTION('',(1.,0.,0.));
#946=AXIS2_PLACEMENT_3D('',#943,#944,#945);
#947=CIRCLE('',#946,1.65);
#948=EDGE_CURVE('',#931,#933,#942,.T.);
#949=EDGE_CURVE('',#933,#931,#942,.T.);
#950=EDGE_CURVE('',#935,#937,#947,.T.);
#951=EDGE_CURVE('',#937,#935,#947,.T.);
#952=CARTESIAN_POINT('',(592.75,562.5,0.));
#953=DIRECTION('',(0.,0.,1.));
#954=VECTOR('',#953,1.);
#955=LINE('',#952,#954);
#956=EDGE_CURVE('',#931,#935,#955,.T.);
#957=CARTESIAN_POINT('',(589.45,562.5,0.));
#958=DIRECTION('',(0.,0.,1.));
#959=VECTOR('',#958,1.);
#960=LINE('',#957,#959);
#961=EDGE_CURVE('',#933,#937,#960,.T.);
#962=CARTESIAN_POINT('',(591.1,562.5,0.));
#963=DIRECTION('',(0.,0.,1.));
#964=DIRECTION('',(1.,0.,0.));
#965=AXIS2_PLACEMENT_3D('',#962,#963,#964);
#966=CYLINDRICAL_SURFACE('',#965,1.65);
#967=ORIENTED_EDGE('',*,*,#956,.T.);
#968=ORIENTED_EDGE('',*,*,#950,.T.);
#969=ORIENTED_EDGE('',*,*,#961,.F.);
#970=ORIENTED_EDGE('',*,*,#948,.F.);
#971=EDGE_LOOP('',(#967,#968,#969,#970));
#972=FACE_OUTER_BOUND('',#971,.T.);
#973=ADVANCED_FACE('',(#972),#966,.F.);
#974=CARTESIAN_POINT('',(591.1,562.5,0.));
#975=DIRECTION('',(0.,0.,1.));
#976=DIRECTION('',(1.,0.,0.));
#977=AXIS2_PLACEMENT_3D('',#974,#975,#976);
#978=CYLINDRICAL_SURFACE('',#977,1.65);
#979=ORIENTED_EDGE('',*,*,#961,.T.);
#980=ORIENTED_EDGE('',*,*,#951,.T.);
#981=ORIENTED_EDGE('',*,*,#956,.F.);
#982=ORIENTED_EDGE('',*,*,#949,.F.);
#983=EDGE_LOOP('',(#979,#980,#981,#982));
#984=FACE_OUTER_BOUND('',#983,.T.);
#985=ADVANCED_FACE('',(#984),#978,.F.);
#986=CARTESIAN_POINT('',(1120.25,562.5,0.));
#987=VERTEX_POINT('',#986);
#988=CARTESIAN_POINT('',(1116.95,562.5,0.));
#989=VERTEX_POINT('',#988);
#990=CARTESIAN_POINT('',(1120.25,562.5,5.));
#991=VERTEX_POINT('',#990);
#992=CARTESIAN_POINT('',(1116.95,562.5,5.));
#993=VERTEX_POINT('',#992);
#994=CARTESIAN_POINT('',(1118.6,562.5,0.));
#995=DIRECTION('',(0.,0.,1.));
#996=DIRECTION('',(1.,0.,0.));
#997=AXIS2_PLACEMENT_3D('',#994,#995,#996);
#998=CIRCLE('',#997,1.65);
#999=CARTESIAN_POINT('',(1118.6,562.5,5.));
#1000=DIRECTION('',(0.,0.,1.));
#1001=DIRECTION('',(1.,0.,0.));
#1002=AXIS2_PLACEMENT_3D('',#999,#1000,#1001);
#1003=CIRCLE('',#1002,1.65);
#1004=EDGE_CURVE('',#987,#989,#998,.T.);
#1005=EDGE_CURVE('',#989,#987,#998,.T.);
#1006=EDGE_CURVE('',#991,#993,#1003,.T.);
#1007=EDGE_CURVE('',#993,#991,#1003,.T.);
#1008=CARTESIAN_POINT('',(1120.25,562.5,0.));
#1009=DIRECTION('',(0.,0.,1.));
#1010=VECTOR('',#1009,1.);
#1011=LINE('',#1008,#1010);
#1012=EDGE_CURVE('',#987,#991,#1011,.T.);
#1013=CARTESIAN_POINT('',(1116.95,562.5,0.));
#1014=DIRECTION('',(0.,0.,1.));
#1015=VECTOR('',#1014,1.);
#1016=LINE('',#1013,#1015);
#1017=EDGE_CURVE('',#989,#993,#1016,.T.);
#1018=CARTESIAN_POINT('',(1118.6,562.5,0.));
#1019=DIRECTION('',(0.,0.,1.));
#1020=DIRECTION('',(1.,0.,0.));
#1021=AXIS2_PLACEMENT_3D('',#1018,#1019,#1020);
#1022=CYLINDRICAL_SURFACE('',#1021,1.65);
#1023=ORIENTED_EDGE('',*,*,#1012,.T.);
#1024=ORIENTED_EDGE('',*,*,#1006,.T.);
#1025=ORIENTED_EDGE('',*,*,#1017,.F.);
#1026=ORIENTED_EDGE('',*,*,#1004,.F.);
#1027=EDGE_LOOP('',(#1023,#1024,#1025,#1026));
#1028=FACE_OUTER_BOUND('',#1027,.T.);
#1029=ADVANCED_FACE('',(#1028),#1022,.F.);
#1030=CARTESIAN_POINT('',(1118.6,562.5,0.));
#1031=DIRECTION('',(0.,0.,1.));
#1032=DIRECTION('',(1.,0.,0.));
#1033=AXIS2_PLACEMENT_3D('',#1030,#1031,#1032);
#1034=CYLINDRICAL_SURFACE('',#1033,1.65);
#1035=ORIENTED_EDGE('',*,*,#1017,.T.);
#1036=ORIENTED_EDGE('',*,*,#1007,.T.);
#1037=ORIENTED_EDGE('',*,*,#1012,.F.);
#1038=ORIENTED_EDGE('',*,*,#1005,.F.);
#1039=EDGE_LOOP('',(#1035,#1036,#1037,#1038));
#1040=FACE_OUTER_BOUND('',#1039,.T.);
#1041=ADVANCED_FACE('',(#1040),#1034,.F.);
#1042=CARTESIAN_POINT('',(1147.75,562.5,0.));
#1043=VERTEX_POINT('',#1042);
#1044=CARTESIAN_POINT('',(1144.45,562.5,0.));
#1045=VERTEX_POINT('',#1044);
#1046=CARTESIAN_POINT('',(1147.75,562.5,5.));
#1047=VERTEX_POINT('',#1046);
#1048=CARTESIAN_POINT('',(1144.45,562.5,5.));
#1049=VERTEX_POINT('',#1048);
#1050=CARTESIAN_POINT('',(1146.1,562.5,0.));
#1051=DIRECTION('',(0.,0.,1.));
#1052=DIRECTION('',(1.,0.,0.));
#1053=AXIS2_PLACEMENT_3D('',#1050,#1051,#1052);
#1054=CIRCLE('',#1053,1.65);
#1055=CARTESIAN_POINT('',(1146.1,562.5,5.));
#1056=DIRECTION('',(0.,0.,1.));
#1057=DIRECTION('',(1.,0.,0.));
#1058=AXIS2_PLACEMENT_3D('',#1055,#1056,#1057);
#1059=CIRCLE('',#1058,1.65);
#1060=EDGE_CURVE('',#1043,#1045,#1054,.T.);
#1061=EDGE_CURVE('',#1045,#1043,#1054,.T.);
#1062=EDGE_CURVE('',#1047,#1049,#1059,.T.);
#1063=EDGE_CURVE('',#1049,#1047,#1059,.T.);
#1064=CARTESIAN_POINT('',(1147.75,562.5,0.));
#1065=DIRECTION('',(0.,0.,1.));
#1066=VECTOR('',#1065,1.);
#1067=LINE('',#1064,#1066);
#1068=EDGE_CURVE('',#1043,#1047,#1067,.T.);
#1069=CARTESIAN_POINT('',(1144.45,562.5,0.));
#1070=DIRECTION('',(0.,0.,1.));
#1071=VECTOR('',#1070,1.);
#1072=LINE('',#1069,#1071);
#1073=EDGE_CURVE('',#1045,#1049,#1072,.T.);
#1074=CARTESIAN_POINT('',(1146.1,562.5,0.));
#1075=DIRECTION('',(0.,0.,1.));
#1076=DIRECTION('',(1.,0.,0.));
#1077=AXIS2_PLACEMENT_3D('',#1074,#1075,#1076);
#1078=CYLINDRICAL_SURFACE('',#1077,1.65);
#1079=ORIENTED_EDGE('',*,*,#1068,.T.);
#1080=ORIENTED_EDGE('',*,*,#1062,.T.);
#1081=ORIENTED_EDGE('',*,*,#1073,.F.);
#1082=ORIENTED_EDGE('',*,*,#1060,.F.);
#1083=EDGE_LOOP('',(#1079,#1080,#1081,#1082));
#1084=FACE_OUTER_BOUND('',#1083,.T.);
#1085=ADVANCED_FACE('',(#1084),#1078,.F.);
#1086=CARTESIAN_POINT('',(1146.1,562.5,0.));
#1087=DIRECTION('',(0.,0.,1.));
#1088=DIRECTION('',(1.,0.,0.));
#1089=AXIS2_PLACEMENT_3D('',#1086,#1087,#1088);
#1090=CYLINDRICAL_SURFACE('',#1089,1.65);
#1091=ORIENTED_EDGE('',*,*,#1073,.T.);
#1092=ORIENTED_EDGE('',*,*,#1063,.T.);
#1093=ORIENTED_EDGE('',*,*,#1068,.F.);
#1094=ORIENTED_EDGE('',*,*,#1061,.F.);
#1095=EDGE_LOOP('',(#1091,#1092,#1093,#1094));
#1096=FACE_OUTER_BOUND('',#1095,.T.);
#1097=ADVANCED_FACE('',(#1096),#1090,.F.);
#1098=CARTESIAN_POINT('',(1120.25,435.,0.));
#1099=VERTEX_POINT('',#1098);
#1100=CARTESIAN_POINT('',(1116.95,435.,0.));
#1101=VERTEX_POINT('',#1100);
#1102=CARTESIAN_POINT('',(1120.25,435.,5.));
#1103=VERTEX_POINT('',#1102);
#1104=CARTESIAN_POINT('',(1116.95,435.,5.));
#1105=VERTEX_POINT('',#1104);
#1106=CARTESIAN_POINT('',(1118.6,435.,0.));
#1107=DIRECTION('',(0.,0.,1.));
#1108=DIRECTION('',(1.,0.,0.));
#1109=AXIS2_PLACEMENT_3D('',#1106,#1107,#1108);
#1110=CIRCLE('',#1109,1.65);
#1111=CARTESIAN_POINT('',(1118.6,435.,5.));
#1112=DIRECTION('',(0.,0.,1.));
#1113=DIRECTION('',(1.,0.,0.));
#1114=AXIS2_PLACEMENT_3D('',#1111,#1112,#1113);
#1115=CIRCLE('',#1114,1.65);
#1116=EDGE_CURVE('',#1099,#1101,#1110,.T.);
#1117=EDGE_CURVE('',#1101,#1099,#1110,.T.);
#1118=EDGE_CURVE('',#1103,#1105,#1115,.T.);
#1119=EDGE_CURVE('',#1105,#1103,#1115,.T.);
#1120=CARTESIAN_POINT('',(1120.25,435.,0.));
#1121=DIRECTION('',(0.,0.,1.));
#1122=VECTOR('',#1121,1.);
#1123=LINE('',#1120,#1122);
#1124=EDGE_CURVE('',#1099,#1103,#1123,.T.);
#1125=CARTESIAN_POINT('',(1116.95,435.,0.));
#1126=DIRECTION('',(0.,0.,1.));
#1127=VECTOR('',#1126,1.);
#1128=LINE('',#1125,#1127);
#1129=EDGE_CURVE('',#1101,#1105,#1128,.T.);
#1130=CARTESIAN_POINT('',(1118.6,435.,0.));
#1131=DIRECTION('',(0.,0.,1.));
#1132=DIRECTION('',(1.,0.,0.));
#1133=AXIS2_PLACEMENT_3D('',#1130,#1131,#1132);
#1134=CYLINDRICAL_SURFACE('',#1133,1.65);
#1135=ORIENTED_EDGE('',*,*,#1124,.T.);
#1136=ORIENTED_EDGE('',*,*,#1118,.T.);
#1137=ORIENTED_EDGE('',*,*,#1129,.F.);
#1138=ORIENTED_EDGE('',*,*,#1116,.F.);
#1139=EDGE_LOOP('',(#1135,#1136,#1137,#1138));
#1140=FACE_OUTER_BOUND('',#1139,.T.);
#1141=ADVANCED_FACE('',(#1140),#1134,.F.);
#1142=CARTESIAN_POINT('',(1118.6,435.,0.));
#1143=DIRECTION('',(0.,0.,1.));
#1144=DIRECTION('',(1.,0.,0.));
#1145=AXIS2_PLACEMENT_3D('',#1142,#1143,#1144);
#1146=CYLINDRICAL_SURFACE('',#1145,1.65);
#1147=ORIENTED_EDGE('',*,*,#1129,.T.);
#1148=ORIENTED_EDGE('',*,*,#1119,.T.);
#1149=ORIENTED_EDGE('',*,*,#1124,.F.);
#1150=ORIENTED_EDGE('',*,*,#1117,.F.);
#1151=EDGE_LOOP('',(#1147,#1148,#1149,#1150));
#1152=FACE_OUTER_BOUND('',#1151,.T.);
#1153=ADVANCED_FACE('',(#1152),#1146,.F.);
#1154=CARTESIAN_POINT('',(1147.75,435.,0.));
#1155=VERTEX_POINT('',#1154);
#1156=CARTESIAN_POINT('',(1144.45,435.,0.));
#1157=VERTEX_POINT('',#1156);
#1158=CARTESIAN_POINT('',(1147.75,435.,5.));
#1159=VERTEX_POINT('',#1158);
#1160=CARTESIAN_POINT('',(1144.45,435.,5.));
#1161=VERTEX_POINT('',#1160);
#1162=CARTESIAN_POINT('',(1146.1,435.,0.));
#1163=DIRECTION('',(0.,0.,1.));
#1164=DIRECTION('',(1.,0.,0.));
#1165=AXIS2_PLACEMENT_3D('',#1162,#1163,#1164);
#1166=CIRCLE('',#1165,1.65);
#1167=CARTESIAN_POINT('',(1146.1,435.,5.));
#1168=DIRECTION('',(0.,0.,1.));
#1169=DIRECTION('',(1.,0.,0.));
#1170=AXIS2_PLACEMENT_3D('',#1167,#1168,#1169);
#1171=CIRCLE('',#1170,1.65);
#1172=EDGE_CURVE('',#1155,#1157,#1166,.T.);
#1173=EDGE_CURVE('',#1157,#1155,#1166,.T.);
#1174=EDGE_CURVE('',#1159,#1161,#1171,.T.);
#1175=EDGE_CURVE('',#1161,#1159,#1171,.T.);
#1176=CARTESIAN_POINT('',(1147.75,435.,0.));
#1177=DIRECTION('',(0.,0.,1.));
#1178=VECTOR('',#1177,1.);
#1179=LINE('',#1176,#1178);
#1180=EDGE_CURVE('',#1155,#1159,#1179,.T.);
#1181=CARTESIAN_POINT('',(1144.45,435.,0.));
#1182=DIRECTION('',(0.,0.,1.));
#1183=VECTOR('',#1182,1.);
#1184=LINE('',#1181,#1183);
#1185=EDGE_CURVE('',#1157,#1161,#1184,.T.);
#1186=CARTESIAN_POINT('',(1146.1,435.,0.));
#1187=DIRECTION('',(0.,0.,1.));
#1188=DIRECTION('',(1.,0.,0.));
#1189=AXIS2_PLACEMENT_3D('',#1186,#1187,#1188);
#1190=CYLINDRICAL_SURFACE('',#1189,1.65);
#1191=ORIENTED_EDGE('',*,*,#1180,.T.);
#1192=ORIENTED_EDGE('',*,*,#1174,.T.);
#1193=ORIENTED_EDGE('',*,*,#1185,.F.);
#1194=ORIENTED_EDGE('',*,*,#1172,.F.);
#1195=EDGE_LOOP('',(#1191,#1192,#1193,#1194));
#1196=FACE_OUTER_BOUND('',#1195,.T.);
#1197=ADVANCED_FACE('',(#1196),#1190,.F.);
#1198=CARTESIAN_POINT('',(1146.1,435.,0.));
#1199=DIRECTION('',(0.,0.,1.));
#1200=DIRECTION('',(1.,0.,0.));
#1201=AXIS2_PLACEMENT_3D('',#1198,#1199,#1200);
#1202=CYLINDRICAL_SURFACE('',#1201,1.65);
#1203=ORIENTED_EDGE('',*,*,#1185,.T.);
#1204=ORIENTED_EDGE('',*,*,#1175,.T.);
#1205=ORIENTED_EDGE('',*,*,#1180,.F.);
#1206=ORIENTED_EDGE('',*,*,#1173,.F.);
#1207=EDGE_LOOP('',(#1203,#1204,#1205,#1206));
#1208=FACE_OUTER_BOUND('',#1207,.T.);
#1209=ADVANCED_FACE('',(#1208),#1202,.F.);
#1210=CARTESIAN_POINT('',(1120.25,135.,0.));
#1211=VERTEX_POINT('',#1210);
#1212=CARTESIAN_POINT('',(1116.95,135.,0.));
#1213=VERTEX_POINT('',#1212);
#1214=CARTESIAN_POINT('',(1120.25,135.,5.));
#1215=VERTEX_POINT('',#1214);
#1216=CARTESIAN_POINT('',(1116.95,135.,5.));
#1217=VERTEX_POINT('',#1216);
#1218=CARTESIAN_POINT('',(1118.6,135.,0.));
#1219=DIRECTION('',(0.,0.,1.));
#1220=DIRECTION('',(1.,0.,0.));
#1221=AXIS2_PLACEMENT_3D('',#1218,#1219,#1220);
#1222=CIRCLE('',#1221,1.65);
#1223=CARTESIAN_POINT('',(1118.6,135.,5.));
#1224=DIRECTION('',(0.,0.,1.));
#1225=DIRECTION('',(1.,0.,0.));
#1226=AXIS2_PLACEMENT_3D('',#1223,#1224,#1225);
#1227=CIRCLE('',#1226,1.65);
#1228=EDGE_CURVE('',#1211,#1213,#1222,.T.);
#1229=EDGE_CURVE('',#1213,#1211,#1222,.T.);
#1230=EDGE_CURVE('',#1215,#1217,#1227,.T.);
#1231=EDGE_CURVE('',#1217,#1215,#1227,.T.);
#1232=CARTESIAN_POINT('',(1120.25,135.,0.));
#1233=DIRECTION('',(0.,0.,1.));
#1234=VECTOR('',#1233,1.);
#1235=LINE('',#1232,#1234);
#1236=EDGE_CURVE('',#1211,#1215,#1235,.T.);
#1237=CARTESIAN_POINT('',(1116.95,135.,0.));
#1238=DIRECTION('',(0.,0.,1.));
#1239=VECTOR('',#1238,1.);
#1240=LINE('',#1237,#1239);
#1241=EDGE_CURVE('',#1213,#1217,#1240,.T.);
#1242=CARTESIAN_POINT('',(1118.6,135.,0.));
#1243=DIRECTION('',(0.,0.,1.));
#1244=DIRECTION('',(1.,0.,0.));
#1245=AXIS2_PLACEMENT_3D('',#1242,#1243,#1244);
#1246=CYLINDRICAL_SURFACE('',#1245,1.65);
#1247=ORIENTED_EDGE('',*,*,#1236,.T.);
#1248=ORIENTED_EDGE('',*,*,#1230,.T.);
#1249=ORIENTED_EDGE('',*,*,#1241,.F.);
#1250=ORIENTED_EDGE('',*,*,#1228,.F.);
#1251=EDGE_LOOP('',(#1247,#1248,#1249,#1250));
#1252=FACE_OUTER_BOUND('',#1251,.T.);
#1253=ADVANCED_FACE('',(#1252),#1246,.F.);
#1254=CARTESIAN_POINT('',(1118.6,135.,0.));
#1255=DIRECTION('',(0.,0.,1.));
#1256=DIRECTION('',(1.,0.,0.));
#1257=AXIS2_PLACEMENT_3D('',#1254,#1255,#1256);
#1258=CYLINDRICAL_SURFACE('',#1257,1.65);
#1259=ORIENTED_EDGE('',*,*,#1241,.T.);
#1260=ORIENTED_EDGE('',*,*,#1231,.T.);
#1261=ORIENTED_EDGE('',*,*,#1236,.F.);
#1262=ORIENTED_EDGE('',*,*,#1229,.F.);
#1263=EDGE_LOOP('',(#1259,#1260,#1261,#1262));
#1264=FACE_OUTER_BOUND('',#1263,.T.);
#1265=ADVANCED_FACE('',(#1264),#1258,.F.);
#1266=CARTESIAN_POINT('',(1147.75,135.,0.));
#1267=VERTEX_POINT('',#1266);
#1268=CARTESIAN_POINT('',(1144.45,135.,0.));
#1269=VERTEX_POINT('',#1268);
#1270=CARTESIAN_POINT('',(1147.75,135.,5.));
#1271=VERTEX_POINT('',#1270);
#1272=CARTESIAN_POINT('',(1144.45,135.,5.));
#1273=VERTEX_POINT('',#1272);
#1274=CARTESIAN_POINT('',(1146.1,135.,0.));
#1275=DIRECTION('',(0.,0.,1.));
#1276=DIRECTION('',(1.,0.,0.));
#1277=AXIS2_PLACEMENT_3D('',#1274,#1275,#1276);
#1278=CIRCLE('',#1277,1.65);
#1279=CARTESIAN_POINT('',(1146.1,135.,5.));
#1280=DIRECTION('',(0.,0.,1.));
#1281=DIRECTION('',(1.,0.,0.));
#1282=AXIS2_PLACEMENT_3D('',#1279,#1280,#1281);
#1283=CIRCLE('',#1282,1.65);
#1284=EDGE_CURVE('',#1267,#1269,#1278,.T.);
#1285=EDGE_CURVE('',#1269,#1267,#1278,.T.);
#1286=EDGE_CURVE('',#1271,#1273,#1283,.T.);
#1287=EDGE_CURVE('',#1273,#1271,#1283,.T.);
#1288=CARTESIAN_POINT('',(1147.75,135.,0.));
#1289=DIRECTION('',(0.,0.,1.));
#1290=VECTOR('',#1289,1.);
#1291=LINE('',#1288,#1290);
#1292=EDGE_CURVE('',#1267,#1271,#1291,.T.);
#1293=CARTESIAN_POINT('',(1144.45,135.,0.));
#1294=DIRECTION('',(0.,0.,1.));
#1295=VECTOR('',#1294,1.);
#1296=LINE('',#1293,#1295);
#1297=EDGE_CURVE('',#1269,#1273,#1296,.T.);
#1298=CARTESIAN_POINT('',(1146.1,135.,0.));
#1299=DIRECTION('',(0.,0.,1.));
#1300=DIRECTION('',(1.,0.,0.));
#1301=AXIS2_PLACEMENT_3D('',#1298,#1299,#1300);
#1302=CYLINDRICAL_SURFACE('',#1301,1.65);
#1303=ORIENTED_EDGE('',*,*,#1292,.T.);
#1304=ORIENTED_EDGE('',*,*,#1286,.T.);
#1305=ORIENTED_EDGE('',*,*,#1297,.F.);
#1306=ORIENTED_EDGE('',*,*,#1284,.F.);
#1307=EDGE_LOOP('',(#1303,#1304,#1305,#1306));
#1308=FACE_OUTER_BOUND('',#1307,.T.);
#1309=ADVANCED_FACE('',(#1308),#1302,.F.);
#1310=CARTESIAN_POINT('',(1146.1,135.,0.));
#1311=DIRECTION('',(0.,0.,1.));
#1312=DIRECTION('',(1.,0.,0.));
#1313=AXIS2_PLACEMENT_3D('',#1310,#1311,#1312);
#1314=CYLINDRICAL_SURFACE('',#1313,1.65);
#1315=ORIENTED_EDGE('',*,*,#1297,.T.);
#1316=ORIENTED_EDGE('',*,*,#1287,.T.);
#1317=ORIENTED_EDGE('',*,*,#1292,.F.);
#1318=ORIENTED_EDGE('',*,*,#1285,.F.);
#1319=EDGE_LOOP('',(#1315,#1316,#1317,#1318));
#1320=FACE_OUTER_BOUND('',#1319,.T.);
#1321=ADVANCED_FACE('',(#1320),#1314,.F.);
#1322=CARTESIAN_POINT('',(592.75,7.5,0.));
#1323=VERTEX_POINT('',#1322);
#1324=CARTESIAN_POINT('',(589.45,7.5,0.));
#1325=VERTEX_POINT('',#1324);
#1326=CARTESIAN_POINT('',(592.75,7.5,5.));
#1327=VERTEX_POINT('',#1326);
#1328=CARTESIAN_POINT('',(589.45,7.5,5.));
#1329=VERTEX_POINT('',#1328);
#1330=CARTESIAN_POINT('',(591.1,7.5,0.));
#1331=DIRECTION('',(0.,0.,1.));
#1332=DIRECTION('',(1.,0.,0.));
#1333=AXIS2_PLACEMENT_3D('',#1330,#1331,#1332);
#1334=CIRCLE('',#1333,1.65);
#1335=CARTESIAN_POINT('',(591.1,7.5,5.));
#1336=DIRECTION('',(0.,0.,1.));
#1337=DIRECTION('',(1.,0.,0.));
#1338=AXIS2_PLACEMENT_3D('',#1335,#1336,#1337);
#1339=CIRCLE('',#1338,1.65);
#1340=EDGE_CURVE('',#1323,#1325,#1334,.T.);
#1341=EDGE_CURVE('',#1325,#1323,#1334,.T.);
#1342=EDGE_CURVE('',#1327,#1329,#1339,.T.);
#1343=EDGE_CURVE('',#1329,#1327,#1339,.T.);
#1344=CARTESIAN_POINT('',(592.75,7.5,0.));
#1345=DIRECTION('',(0.,0.,1.));
#1346=VECTOR('',#1345,1.);
#1347=LINE('',#1344,#1346);
#1348=EDGE_CURVE('',#1323,#1327,#1347,.T.);
#1349=CARTESIAN_POINT('',(589.45,7.5,0.));
#1350=DIRECTION('',(0.,0.,1.));
#1351=VECTOR('',#1350,1.);
#1352=LINE('',#1349,#1351);
#1353=EDGE_CURVE('',#1325,#1329,#1352,.T.);
#1354=CARTESIAN_POINT('',(591.1,7.5,0.));
#1355=DIRECTION('',(0.,0.,1.));
#1356=DIRECTION('',(1.,0.,0.));
#1357=AXIS2_PLACEMENT_3D('',#1354,#1355,#1356);
#1358=CYLINDRICAL_SURFACE('',#1357,1.65);
#1359=ORIENTED_EDGE('',*,*,#1348,.T.);
#1360=ORIENTED_EDGE('',*,*,#1342,.T.);
#1361=ORIENTED_EDGE('',*,*,#1353,.F.);
#1362=ORIENTED_EDGE('',*,*,#1340,.F.);
#1363=EDGE_LOOP('',(#1359,#1360,#1361,#1362));
#1364=FACE_OUTER_BOUND('',#1363,.T.);
#1365=ADVANCED_FACE('',(#1364),#1358,.F.);
#1366=CARTESIAN_POINT('',(591.1,7.5,0.));
#1367=DIRECTION('',(0.,0.,1.));
#1368=DIRECTION('',(1.,0.,0.));
#1369=AXIS2_PLACEMENT_3D('',#1366,#1367,#1368);
#1370=CYLINDRICAL_SURFACE('',#1369,1.65);
#1371=ORIENTED_EDGE('',*,*,#1353,.T.);
#1372=ORIENTED_EDGE('',*,*,#1343,.T.);
#1373=ORIENTED_EDGE('',*,*,#1348,.F.);
#1374=ORIENTED_EDGE('',*,*,#1341,.F.);
#1375=EDGE_LOOP('',(#1371,#1372,#1373,#1374));
#1376=FACE_OUTER_BOUND('',#1375,.T.);
#1377=ADVANCED_FACE('',(#1376),#1370,.F.);
#1378=CARTESIAN_POINT('',(1120.25,7.5,0.));
#1379=VERTEX_POINT('',#1378);
#1380=CARTESIAN_POINT('',(1116.95,7.5,0.));
#1381=VERTEX_POINT('',#1380);
#1382=CARTESIAN_POINT('',(1120.25,7.5,5.));
#1383=VERTEX_POINT('',#1382);
#1384=CARTESIAN_POINT('',(1116.95,7.5,5.));
#1385=VERTEX_POINT('',#1384);
#1386=CARTESIAN_POINT('',(1118.6,7.5,0.));
#1387=DIRECTION('',(0.,0.,1.));
#1388=DIRECTION('',(1.,0.,0.));
#1389=AXIS2_PLACEMENT_3D('',#1386,#1387,#1388);
#1390=CIRCLE('',#1389,1.65);
#1391=CARTESIAN_POINT('',(1118.6,7.5,5.));
#1392=DIRECTION('',(0.,0.,1.));
#1393=DIRECTION('',(1.,0.,0.));
#1394=AXIS2_PLACEMENT_3D('',#1391,#1392,#1393);
#1395=CIRCLE('',#1394,1.65);
#1396=EDGE_CURVE('',#1379,#1381,#1390,.T.);
#1397=EDGE_CURVE('',#1381,#1379,#1390,.T.);
#1398=EDGE_CURVE('',#1383,#1385,#1395,.T.);
#1399=EDGE_CURVE('',#1385,#1383,#1395,.T.);
#1400=CARTESIAN_POINT('',(1120.25,7.5,0.));
#1401=DIRECTION('',(0.,0.,1.));
#1402=VECTOR('',#1401,1.);
#1403=LINE('',#1400,#1402);
#1404=EDGE_CURVE('',#1379,#1383,#1403,.T.);
#1405=CARTESIAN_POINT('',(1116.95,7.5,0.));
#1406=DIRECTION('',(0.,0.,1.));
#1407=VECTOR('',#1406,1.);
#1408=LINE('',#1405,#1407);
#1409=EDGE_CURVE('',#1381,#1385,#1408,.T.);
#1410=CARTESIAN_POINT('',(1118.6,7.5,0.));
#1411=DIRECTION('',(0.,0.,1.));
#1412=DIRECTION('',(1.,0.,0.));
#1413=AXIS2_PLACEMENT_3D('',#1410,#1411,#1412);
#1414=CYLINDRICAL_SURFACE('',#1413,1.65);
#1415=ORIENTED_EDGE('',*,*,#1404,.T.);
#1416=ORIENTED_EDGE('',*,*,#1398,.T.);
#1417=ORIENTED_EDGE('',*,*,#1409,.F.);
#1418=ORIENTED_EDGE('',*,*,#1396,.F.);
#1419=EDGE_LOOP('',(#1415,#1416,#1417,#1418));
#1420=FACE_OUTER_BOUND('',#1419,.T.);
#1421=ADVANCED_FACE('',(#1420),#1414,.F.);
#1422=CARTESIAN_POINT('',(1118.6,7.5,0.));
#1423=DIRECTION('',(0.,0.,1.));
#1424=DIRECTION('',(1.,0.,0.));
#1425=AXIS2_PLACEMENT_3D('',#1422,#1423,#1424);
#1426=CYLINDRICAL_SURFACE('',#1425,1.65);
#1427=ORIENTED_EDGE('',*,*,#1409,.T.);
#1428=ORIENTED_EDGE('',*,*,#1399,.T.);
#1429=ORIENTED_EDGE('',*,*,#1404,.F.);
#1430=ORIENTED_EDGE('',*,*,#1397,.F.);
#1431=EDGE_LOOP('',(#1427,#1428,#1429,#1430));
#1432=FACE_OUTER_BOUND('',#1431,.T.);
#1433=ADVANCED_FACE('',(#1432),#1426,.F.);
#1434=CARTESIAN_POINT('',(1147.75,7.5,0.));
#1435=VERTEX_POINT('',#1434);
#1436=CARTESIAN_POINT('',(1144.45,7.5,0.));
#1437=VERTEX_POINT('',#1436);
#1438=CARTESIAN_POINT('',(1147.75,7.5,5.));
#1439=VERTEX_POINT('',#1438);
#1440=CARTESIAN_POINT('',(1144.45,7.5,5.));
#1441=VERTEX_POINT('',#1440);
#1442=CARTESIAN_POINT('',(1146.1,7.5,0.));
#1443=DIRECTION('',(0.,0.,1.));
#1444=DIRECTION('',(1.,0.,0.));
#1445=AXIS2_PLACEMENT_3D('',#1442,#1443,#1444);
#1446=CIRCLE('',#1445,1.65);
#1447=CARTESIAN_POINT('',(1146.1,7.5,5.));
#1448=DIRECTION('',(0.,0.,1.));
#1449=DIRECTION('',(1.,0.,0.));
#1450=AXIS2_PLACEMENT_3D('',#1447,#1448,#1449);
#1451=CIRCLE('',#1450,1.65);
#1452=EDGE_CURVE('',#1435,#1437,#1446,.T.);
#1453=EDGE_CURVE('',#1437,#1435,#1446,.T.);
#1454=EDGE_CURVE('',#1439,#1441,#1451,.T.);
#1455=EDGE_CURVE('',#1441,#1439,#1451,.T.);
#1456=CARTESIAN_POINT('',(1147.75,7.5,0.));
#1457=DIRECTION('',(0.,0.,1.));
#1458=VECTOR('',#1457,1.);
#1459=LINE('',#1456,#1458);
#1460=EDGE_CURVE('',#1435,#1439,#1459,.T.);
#1461=CARTESIAN_POINT('',(1144.45,7.5,0.));
#1462=DIRECTION('',(0.,0.,1.));
#1463=VECTOR('',#1462,1.);
#1464=LINE('',#1461,#1463);
#1465=EDGE_CURVE('',#1437,#1441,#1464,.T.);
#1466=CARTESIAN_POINT('',(1146.1,7.5,0.));
#1467=DIRECTION('',(0.,0.,1.));
#1468=DIRECTION('',(1.,0.,0.));
#1469=AXIS2_PLACEMENT_3D('',#1466,#1467,#1468);
#1470=CYLINDRICAL_SURFACE('',#1469,1.65);
#1471=ORIENTED_EDGE('',*,*,#1460,.T.);
#1472=ORIENTED_EDGE('',*,*,#1454,.T.);
#1473=ORIENTED_EDGE('',*,*,#1465,.F.);
#1474=ORIENTED_EDGE('',*,*,#1452,.F.);
#1475=EDGE_LOOP('',(#1471,#1472,#1473,#1474));
#1476=FACE_OUTER_BOUND('',#1475,.T.);
#1477=ADVANCED_FACE('',(#1476),#1470,.F.);
#1478=CARTESIAN_POINT('',(1146.1,7.5,0.));
#1479=DIRECTION('',(0.,0.,1.));
#1480=DIRECTION('',(1.,0.,0.));
#1481=AXIS2_PLACEMENT_3D('',#1478,#1479,#1480);
#1482=CYLINDRICAL_SURFACE('',#1481,1.65);
#1483=ORIENTED_EDGE('',*,*,#1465,.T.);
#1484=ORIENTED_EDGE('',*,*,#1455,.T.);
#1485=ORIENTED_EDGE('',*,*,#1460,.F.);
#1486=ORIENTED_EDGE('',*,*,#1453,.F.);
#1487=EDGE_LOOP('',(#1483,#1484,#1485,#1486));
#1488=FACE_OUTER_BOUND('',#1487,.T.);
#1489=ADVANCED_FACE('',(#1488),#1482,.F.);
#1490=ORIENTED_EDGE('',*,*,#749,.F.);
#1491=ORIENTED_EDGE('',*,*,#743,.F.);
#1492=ORIENTED_EDGE('',*,*,#738,.F.);
#1493=ORIENTED_EDGE('',*,*,#732,.F.);
#1494=ORIENTED_EDGE('',*,*,#727,.F.);
#1495=ORIENTED_EDGE('',*,*,#721,.F.);
#1496=ORIENTED_EDGE('',*,*,#716,.F.);
#1497=ORIENTED_EDGE('',*,*,#710,.F.);
#1498=EDGE_LOOP('',(#1490,#1491,#1492,#1493,#1494,#1495,#1496,#1497));
#1499=ORIENTED_EDGE('',*,*,#948,.T.);
#1500=ORIENTED_EDGE('',*,*,#949,.T.);
#1501=EDGE_LOOP('',(#1499,#1500));
#1502=ORIENTED_EDGE('',*,*,#1004,.T.);
#1503=ORIENTED_EDGE('',*,*,#1005,.T.);
#1504=EDGE_LOOP('',(#1502,#1503));
#1505=ORIENTED_EDGE('',*,*,#1060,.T.);
#1506=ORIENTED_EDGE('',*,*,#1061,.T.);
#1507=EDGE_LOOP('',(#1505,#1506));
#1508=ORIENTED_EDGE('',*,*,#1116,.T.);
#1509=ORIENTED_EDGE('',*,*,#1117,.T.);
#1510=EDGE_LOOP('',(#1508,#1509));
#1511=ORIENTED_EDGE('',*,*,#1172,.T.);
#1512=ORIENTED_EDGE('',*,*,#1173,.T.);
#1513=EDGE_LOOP('',(#1511,#1512));
#1514=ORIENTED_EDGE('',*,*,#1228,.T.);
#1515=ORIENTED_EDGE('',*,*,#1229,.T.);
#1516=EDGE_LOOP('',(#1514,#1515));
#1517=ORIENTED_EDGE('',*,*,#1284,.T.);
#1518=ORIENTED_EDGE('',*,*,#1285,.T.);
#1519=EDGE_LOOP('',(#1517,#1518));
#1520=ORIENTED_EDGE('',*,*,#1340,.T.);
#1521=ORIENTED_EDGE('',*,*,#1341,.T.);
#1522=EDGE_LOOP('',(#1520,#1521));
#1523=ORIENTED_EDGE('',*,*,#1396,.T.);
#1524=ORIENTED_EDGE('',*,*,#1397,.T.);
#1525=EDGE_LOOP('',(#1523,#1524));
#1526=ORIENTED_EDGE('',*,*,#1452,.T.);
#1527=ORIENTED_EDGE('',*,*,#1453,.T.);
#1528=EDGE_LOOP('',(#1526,#1527));
#1529=CARTESIAN_POINT('',(0.,0.,0.));
#1530=DIRECTION('',(0.,0.,1.));
#1531=DIRECTION('',(1.,0.,0.));
#1532=AXIS2_PLACEMENT_3D('',#1529,#1530,#1531);
#1533=PLANE('',#1532);
#1534=FACE_OUTER_BOUND('',#1498,.T.);
#1535=FACE_BOUND('',#1501,.T.);
#1536=FACE_BOUND('',#1504,.T.);
#1537=FACE_BOUND('',#1507,.T.);
#1538=FACE_BOUND('',#1510,.T.);
#1539=FACE_BOUND('',#1513,.T.);
#1540=FACE_BOUND('',#1516,.T.);
#1541=FACE_BOUND('',#1519,.T.);
#1542=FACE_BOUND('',#1522,.T.);
#1543=FACE_BOUND('',#1525,.T.);
#1544=FACE_BOUND('',#1528,.T.);
#1545=ADVANCED_FACE('',(#1534,#1535,#1536,#1537,#1538,#1539,#1540,#1541,#1542,#1543,#1544),#1533,.F.);
#1546=ORIENTED_EDGE('',*,*,#754,.T.);
#1547=ORIENTED_EDGE('',*,*,#760,.T.);
#1548=ORIENTED_EDGE('',*,*,#765,.T.);
#1549=ORIENTED_EDGE('',*,*,#771,.T.);
#1550=ORIENTED_EDGE('',*,*,#776,.T.);
#1551=ORIENTED_EDGE('',*,*,#782,.T.);
#1552=ORIENTED_EDGE('',*,*,#787,.T.);
#1553=ORIENTED_EDGE('',*,*,#793,.T.);
#1554=EDGE_LOOP('',(#1546,#1547,#1548,#1549,#1550,#1551,#1552,#1553));
#1555=ORIENTED_EDGE('',*,*,#951,.F.);
#1556=ORIENTED_EDGE('',*,*,#950,.F.);
#1557=EDGE_LOOP('',(#1555,#1556));
#1558=ORIENTED_EDGE('',*,*,#1007,.F.);
#1559=ORIENTED_EDGE('',*,*,#1006,.F.);
#1560=EDGE_LOOP('',(#1558,#1559));
#1561=ORIENTED_EDGE('',*,*,#1063,.F.);
#1562=ORIENTED_EDGE('',*,*,#1062,.F.);
#1563=EDGE_LOOP('',(#1561,#1562));
#1564=ORIENTED_EDGE('',*,*,#1119,.F.);
#1565=ORIENTED_EDGE('',*,*,#1118,.F.);
#1566=EDGE_LOOP('',(#1564,#1565));
#1567=ORIENTED_EDGE('',*,*,#1175,.F.);
#1568=ORIENTED_EDGE('',*,*,#1174,.F.);
#1569=EDGE_LOOP('',(#1567,#1568));
#1570=ORIENTED_EDGE('',*,*,#1231,.F.);
#1571=ORIENTED_EDGE('',*,*,#1230,.F.);
#1572=EDGE_LOOP('',(#1570,#1571));
#1573=ORIENTED_EDGE('',*,*,#1287,.F.);
#1574=ORIENTED_EDGE('',*,*,#1286,.F.);
#1575=EDGE_LOOP('',(#1573,#1574));
#1576=ORIENTED_EDGE('',*,*,#1343,.F.);
#1577=ORIENTED_EDGE('',*,*,#1342,.F.);
#1578=EDGE_LOOP('',(#1576,#1577));
#1579=ORIENTED_EDGE('',*,*,#1399,.F.);
#1580=ORIENTED_EDGE('',*,*,#1398,.F.);
#1581=EDGE_LOOP('',(#1579,#1580));
#1582=ORIENTED_EDGE('',*,*,#1455,.F.);
#1583=ORIENTED_EDGE('',*,*,#1454,.F.);
#1584=EDGE_LOOP('',(#1582,#1583));
#1585=CARTESIAN_POINT('',(0.,0.,5.));
#1586=DIRECTION('',(0.,0.,1.));
#1587=DIRECTION('',(1.,0.,0.));
#1588=AXIS2_PLACEMENT_3D('',#1585,#1586,#1587);
#1589=PLANE('',#1588);
#1590=FACE_OUTER_BOUND('',#1554,.T.);
#1591=FACE_BOUND('',#1557,.T.);
#1592=FACE_BOUND('',#1560,.T.);
#1593=FACE_BOUND('',#1563,.T.);
#1594=FACE_BOUND('',#1566,.T.);
#1595=FACE_BOUND('',#1569,.T.);
#1596=FACE_BOUND('',#1572,.T.);
#1597=FACE_BOUND('',#1575,.T.);
#1598=FACE_BOUND('',#1578,.T.);
#1599=FACE_BOUND('',#1581,.T.);
#1600=FACE_BOUND('',#1584,.T.);
#1601=ADVANCED_FACE('',(#1590,#1591,#1592,#1593,#1594,#1595,#1596,#1597,#1598,#1599,#1600),#1589,.T.);
#1602=CLOSED_SHELL('',(#845,#857,#869,#881,#893,#905,#917,#929,#973,#985,#1029,#1041,#1085,#1097,#1141,#1153,#1197,#1209,#1253,#1265,#1309,#1321,#1365,#1377,#1421,#1433,#1477,#1489,#1545,#1601));
#1603=MANIFOLD_SOLID_BREP('panel_1',#673);
#1604=MANIFOLD_SOLID_BREP('panel_2',#1602);
#1605=(LENGTH_UNIT()NAMED_UNIT(*)SI_UNIT(.MILLI.,.METRE.));
#1606=(NAMED_UNIT(*)PLANE_ANGLE_UNIT()SI_UNIT($,.RADIAN.));
#1607=(NAMED_UNIT(*)SI_UNIT($,.STERADIAN.)SOLID_ANGLE_UNIT());
#1608=UNCERTAINTY_MEASURE_WITH_UNIT(LENGTH_MEASURE(1.E-07),#1605,'distance_accuracy_value','confusion accuracy');
#1609=(GEOMETRIC_REPRESENTATION_CONTEXT(3)GLOBAL_UNCERTAINTY_ASSIGNED_CONTEXT((#1608))GLOBAL_UNIT_ASSIGNED_CONTEXT((#1605,#1606,#1607))REPRESENTATION_CONTEXT('',''));
#1610=CARTESIAN_POINT('',(0.,0.,0.));
#1611=DIRECTION('',(0.,0.,1.));
#1612=DIRECTION('',(1.,0.,0.));
#1613=AXIS2_PLACEMENT_3D('',#1610,#1611,#1612);
#1614=ADVANCED_BREP_SHAPE_REPRESENTATION('ChessBot V2 board',(#1603,#1604,#1613),#1609);
#1615=APPLICATION_CONTEXT('automotive design');
#1616=APPLICATION_PROTOCOL_DEFINITION('international standard','automotive_design',2000,#1615);
#1617=PRODUCT_DEFINITION_CONTEXT('part definition',#1615,'design');
#1618=PRODUCT_CONTEXT('',#1615,'mechanical');
#1619=PRODUCT('ChessBot V2 board','ChessBot V2 board','',(#1618));
#1620=PRODUCT_DEFINITION_FORMATION('','',#1619);
#1621=PRODUCT_DEFINITION('design','',#1620,#1617);
#1622=PRODUCT_DEFINITION_SHAPE('','',#1621);
#1623=SHAPE_DEFINITION_REPRESENTATION(#1622,#1614);
ENDSEC;
END-ISO-10303-21;
